M48
; DRILL file {KiCad 5.1.6} date Thu Jul  9 18:30:37 2020
; FORMAT={-:-/ absolute / inch / decimal}
; #@! TF.CreationDate,2020-07-09T18:30:37+12:00
; #@! TF.GenerationSoftware,Kicad,Pcbnew,5.1.6
FMAT,2
INCH
T1C0.0276
T2C0.0315
T3C0.1260
%
G90
G05
T1
X3.4Y-3.3
X3.4Y-3.6
X3.2Y-3.3
X3.2Y-3.6
X3.0Y-3.3
X3.0Y-3.6
T2
X4.2Y-3.2
X4.4Y-3.2
X4.6Y-3.2
X2.95Y-1.5
X2.95Y-1.6
X2.95Y-1.7
X2.95Y-1.8
X2.95Y-1.9
X2.95Y-2.0
X2.95Y-2.1
X2.95Y-2.2
X2.95Y-2.3
X2.95Y-2.4
X2.95Y-2.5
X2.95Y-2.6
X2.95Y-2.7
X2.95Y-2.8
X2.95Y-2.9
X3.95Y-1.5
X3.95Y-1.6
X3.95Y-1.7
X3.95Y-1.8
X3.95Y-1.9
X3.95Y-2.0
X3.95Y-2.1
X3.95Y-2.2
X3.95Y-2.3
X3.95Y-2.4
X3.95Y-2.5
X3.95Y-2.6
X3.95Y-2.7
X3.95Y-2.8
X3.95Y-2.9
X4.55Y-1.45
X4.75Y-1.45
X4.2Y-2.6
X4.2Y-2.7
X4.2Y-2.8
X4.2Y-2.9
X4.15Y-1.45
X4.35Y-1.45
X4.2Y-1.9
X4.2Y-2.45
X4.9Y-1.9
X4.9Y-2.45
X3.0Y-3.7
X3.1Y-3.7
X3.2Y-3.7
X3.3Y-3.7
X3.6Y-3.35
X3.6Y-3.65
X3.7Y-3.35
X3.7Y-3.65
X3.8Y-3.35
X3.8Y-3.65
X3.9Y-3.35
X3.9Y-3.65
T3
X2.75Y-1.45
X2.75Y-3.75
X5.05Y-1.45
X5.05Y-3.75
T0
M30
