%TF.GenerationSoftware,KiCad,Pcbnew,5.1.6*%
%TF.CreationDate,2020-07-09T18:30:33+12:00*%
%TF.ProjectId,anemometer_board,616e656d-6f6d-4657-9465-725f626f6172,rev?*%
%TF.SameCoordinates,Original*%
%TF.FileFunction,Copper,L2,Bot*%
%TF.FilePolarity,Positive*%
%FSLAX46Y46*%
G04 Gerber Fmt 4.6, Leading zero omitted, Abs format (unit mm)*
G04 Created by KiCad (PCBNEW 5.1.6) date 2020-07-09 18:30:33*
%MOMM*%
%LPD*%
G01*
G04 APERTURE LIST*
%TA.AperFunction,NonConductor*%
%ADD10C,0.600000*%
%TD*%
%TA.AperFunction,ComponentPad*%
%ADD11O,2.000000X2.000000*%
%TD*%
%TA.AperFunction,ComponentPad*%
%ADD12R,2.000000X2.000000*%
%TD*%
%TA.AperFunction,ComponentPad*%
%ADD13O,1.400000X1.400000*%
%TD*%
%TA.AperFunction,ComponentPad*%
%ADD14C,1.400000*%
%TD*%
%TA.AperFunction,ComponentPad*%
%ADD15C,2.000000*%
%TD*%
%TA.AperFunction,ViaPad*%
%ADD16C,6.000000*%
%TD*%
%TA.AperFunction,Conductor*%
%ADD17C,1.000000*%
%TD*%
%TA.AperFunction,Conductor*%
%ADD18C,0.254000*%
%TD*%
G04 APERTURE END LIST*
D10*
X85871666Y-38400000D02*
X85871666Y-39590476D01*
X86585952Y-38161904D02*
X84085952Y-38995238D01*
X86585952Y-39828571D01*
X86585952Y-40661904D02*
X84085952Y-40661904D01*
X86585952Y-42090476D01*
X84085952Y-42090476D01*
X85276428Y-43280952D02*
X85276428Y-44114285D01*
X86585952Y-44471428D02*
X86585952Y-43280952D01*
X84085952Y-43280952D01*
X84085952Y-44471428D01*
X86585952Y-45542857D02*
X84085952Y-45542857D01*
X85871666Y-46376190D01*
X84085952Y-47209523D01*
X86585952Y-47209523D01*
X84085952Y-48876190D02*
X84085952Y-49352380D01*
X84205000Y-49590476D01*
X84443095Y-49828571D01*
X84919285Y-49947619D01*
X85752619Y-49947619D01*
X86228809Y-49828571D01*
X86466904Y-49590476D01*
X86585952Y-49352380D01*
X86585952Y-48876190D01*
X86466904Y-48638095D01*
X86228809Y-48400000D01*
X85752619Y-48280952D01*
X84919285Y-48280952D01*
X84443095Y-48400000D01*
X84205000Y-48638095D01*
X84085952Y-48876190D01*
X86585952Y-51019047D02*
X84085952Y-51019047D01*
X85871666Y-51852380D01*
X84085952Y-52685714D01*
X86585952Y-52685714D01*
X85276428Y-53876190D02*
X85276428Y-54709523D01*
X86585952Y-55066666D02*
X86585952Y-53876190D01*
X84085952Y-53876190D01*
X84085952Y-55066666D01*
X84085952Y-55780952D02*
X84085952Y-57209523D01*
X86585952Y-56495238D02*
X84085952Y-56495238D01*
X85276428Y-58042857D02*
X85276428Y-58876190D01*
X86585952Y-59233333D02*
X86585952Y-58042857D01*
X84085952Y-58042857D01*
X84085952Y-59233333D01*
X86585952Y-61733333D02*
X85395476Y-60900000D01*
X86585952Y-60304761D02*
X84085952Y-60304761D01*
X84085952Y-61257142D01*
X84205000Y-61495238D01*
X84324047Y-61614285D01*
X84562142Y-61733333D01*
X84919285Y-61733333D01*
X85157380Y-61614285D01*
X85276428Y-61495238D01*
X85395476Y-61257142D01*
X85395476Y-60304761D01*
X85276428Y-65542857D02*
X85395476Y-65900000D01*
X85514523Y-66019047D01*
X85752619Y-66138095D01*
X86109761Y-66138095D01*
X86347857Y-66019047D01*
X86466904Y-65900000D01*
X86585952Y-65661904D01*
X86585952Y-64709523D01*
X84085952Y-64709523D01*
X84085952Y-65542857D01*
X84205000Y-65780952D01*
X84324047Y-65900000D01*
X84562142Y-66019047D01*
X84800238Y-66019047D01*
X85038333Y-65900000D01*
X85157380Y-65780952D01*
X85276428Y-65542857D01*
X85276428Y-64709523D01*
X84085952Y-67685714D02*
X84085952Y-68161904D01*
X84205000Y-68400000D01*
X84443095Y-68638095D01*
X84919285Y-68757142D01*
X85752619Y-68757142D01*
X86228809Y-68638095D01*
X86466904Y-68400000D01*
X86585952Y-68161904D01*
X86585952Y-67685714D01*
X86466904Y-67447619D01*
X86228809Y-67209523D01*
X85752619Y-67090476D01*
X84919285Y-67090476D01*
X84443095Y-67209523D01*
X84205000Y-67447619D01*
X84085952Y-67685714D01*
X85871666Y-69709523D02*
X85871666Y-70900000D01*
X86585952Y-69471428D02*
X84085952Y-70304761D01*
X86585952Y-71138095D01*
X86585952Y-73400000D02*
X85395476Y-72566666D01*
X86585952Y-71971428D02*
X84085952Y-71971428D01*
X84085952Y-72923809D01*
X84205000Y-73161904D01*
X84324047Y-73280952D01*
X84562142Y-73400000D01*
X84919285Y-73400000D01*
X85157380Y-73280952D01*
X85276428Y-73161904D01*
X85395476Y-72923809D01*
X85395476Y-71971428D01*
X86585952Y-74471428D02*
X84085952Y-74471428D01*
X84085952Y-75066666D01*
X84205000Y-75423809D01*
X84443095Y-75661904D01*
X84681190Y-75780952D01*
X85157380Y-75900000D01*
X85514523Y-75900000D01*
X85990714Y-75780952D01*
X86228809Y-75661904D01*
X86466904Y-75423809D01*
X86585952Y-75066666D01*
X86585952Y-74471428D01*
X88435952Y-53340476D02*
X90935952Y-54173809D01*
X88435952Y-55007142D01*
X90935952Y-57150000D02*
X90935952Y-55721428D01*
X90935952Y-56435714D02*
X88435952Y-56435714D01*
X88793095Y-56197619D01*
X89031190Y-55959523D01*
X89150238Y-55721428D01*
X90697857Y-58221428D02*
X90816904Y-58340476D01*
X90935952Y-58221428D01*
X90816904Y-58102380D01*
X90697857Y-58221428D01*
X90935952Y-58221428D01*
X88435952Y-59888095D02*
X88435952Y-60126190D01*
X88555000Y-60364285D01*
X88674047Y-60483333D01*
X88912142Y-60602380D01*
X89388333Y-60721428D01*
X89983571Y-60721428D01*
X90459761Y-60602380D01*
X90697857Y-60483333D01*
X90816904Y-60364285D01*
X90935952Y-60126190D01*
X90935952Y-59888095D01*
X90816904Y-59650000D01*
X90697857Y-59530952D01*
X90459761Y-59411904D01*
X89983571Y-59292857D01*
X89388333Y-59292857D01*
X88912142Y-59411904D01*
X88674047Y-59530952D01*
X88555000Y-59650000D01*
X88435952Y-59888095D01*
D11*
%TO.P,U3,8*%
%TO.N,+3V3*%
X91440000Y-85090000D03*
%TO.P,U3,4*%
%TO.N,GND*%
X99060000Y-92710000D03*
%TO.P,U3,7*%
%TO.N,N/C*%
X93980000Y-85090000D03*
%TO.P,U3,3*%
%TO.N,Net-(R2-Pad2)*%
X96520000Y-92710000D03*
%TO.P,U3,6*%
%TO.N,N/C*%
X96520000Y-85090000D03*
%TO.P,U3,2*%
%TO.N,Net-(C1-Pad1)*%
X93980000Y-92710000D03*
%TO.P,U3,5*%
%TO.N,N/C*%
X99060000Y-85090000D03*
D12*
%TO.P,U3,1*%
%TO.N,ANE_OUT*%
X91440000Y-92710000D03*
%TD*%
D13*
%TO.P,R3,2*%
%TO.N,ANE_OUT*%
X86360000Y-91440000D03*
D14*
%TO.P,R3,1*%
%TO.N,+3V3*%
X86360000Y-83820000D03*
%TD*%
D13*
%TO.P,R2,2*%
%TO.N,Net-(R2-Pad2)*%
X76200000Y-91440000D03*
D14*
%TO.P,R2,1*%
%TO.N,+3V3*%
X76200000Y-83820000D03*
%TD*%
D13*
%TO.P,R1,2*%
%TO.N,Net-(R1-Pad2)*%
X81280000Y-91440000D03*
D14*
%TO.P,R1,1*%
%TO.N,+3V3*%
X81280000Y-83820000D03*
%TD*%
D15*
%TO.P,U2,3*%
%TO.N,GND*%
X106680000Y-48260000D03*
%TO.P,U2,2*%
%TO.N,/SOLAR-*%
X124460000Y-48260000D03*
%TO.P,U2,4*%
%TO.N,BATT+*%
X106680000Y-62230000D03*
D12*
%TO.P,U2,1*%
%TO.N,/SOLAR+*%
X124460000Y-62230000D03*
%TD*%
D15*
%TO.P,J2,2*%
%TO.N,BATT+*%
X105410000Y-36830000D03*
D12*
%TO.P,J2,1*%
%TO.N,GND*%
X110490000Y-36830000D03*
%TD*%
D15*
%TO.P,J1,2*%
%TO.N,/SOLAR+*%
X115570000Y-36830000D03*
D12*
%TO.P,J1,1*%
%TO.N,/SOLAR-*%
X120650000Y-36830000D03*
%TD*%
D15*
%TO.P,U1,4*%
%TO.N,Net-(R2-Pad2)*%
X76200000Y-93980000D03*
%TO.P,U1,3*%
%TO.N,GND*%
X78740000Y-93980000D03*
%TO.P,U1,2*%
%TO.N,Net-(R1-Pad2)*%
X81280000Y-93980000D03*
D12*
%TO.P,U1,1*%
%TO.N,GND*%
X83820000Y-93980000D03*
%TD*%
D15*
%TO.P,U4,4*%
%TO.N,+3V3*%
X106680000Y-73660000D03*
%TO.P,U4,3*%
%TO.N,GND*%
X106680000Y-71120000D03*
%TO.P,U4,2*%
%TO.N,BATT+*%
X106680000Y-68580000D03*
D12*
%TO.P,U4,1*%
%TO.N,Net-(U4-Pad1)*%
X106680000Y-66040000D03*
%TD*%
D15*
%TO.P,RV1,3*%
%TO.N,GND*%
X116840000Y-81280000D03*
D12*
%TO.P,RV1,1*%
%TO.N,+3V3*%
X106680000Y-81280000D03*
D15*
%TO.P,RV1,2*%
%TO.N,Net-(C1-Pad1)*%
X111760000Y-81280000D03*
%TD*%
%TO.P,E1,30*%
%TO.N,Net-(E1-Pad30)*%
X74930000Y-38100000D03*
%TO.P,E1,29*%
%TO.N,Net-(E1-Pad29)*%
X74930000Y-40640000D03*
%TO.P,E1,28*%
%TO.N,Net-(E1-Pad28)*%
X74930000Y-43180000D03*
%TO.P,E1,27*%
%TO.N,Net-(E1-Pad27)*%
X74930000Y-45720000D03*
%TO.P,E1,26*%
%TO.N,Net-(E1-Pad26)*%
X74930000Y-48260000D03*
%TO.P,E1,25*%
%TO.N,Net-(E1-Pad25)*%
X74930000Y-50800000D03*
%TO.P,E1,24*%
%TO.N,Net-(E1-Pad24)*%
X74930000Y-53340000D03*
%TO.P,E1,23*%
%TO.N,Net-(E1-Pad23)*%
X74930000Y-55880000D03*
%TO.P,E1,22*%
%TO.N,Net-(E1-Pad22)*%
X74930000Y-58420000D03*
%TO.P,E1,21*%
%TO.N,Net-(E1-Pad21)*%
X74930000Y-60960000D03*
%TO.P,E1,20*%
%TO.N,ANE_OUT*%
X74930000Y-63500000D03*
%TO.P,E1,19*%
%TO.N,Net-(E1-Pad19)*%
X74930000Y-66040000D03*
%TO.P,E1,18*%
%TO.N,Net-(E1-Pad18)*%
X74930000Y-68580000D03*
%TO.P,E1,17*%
%TO.N,Net-(E1-Pad17)*%
X74930000Y-71120000D03*
%TO.P,E1,16*%
%TO.N,Net-(E1-Pad16)*%
X74930000Y-73660000D03*
%TO.P,E1,15*%
%TO.N,Net-(E1-Pad15)*%
X100330000Y-38100000D03*
%TO.P,E1,14*%
%TO.N,Net-(E1-Pad14)*%
X100330000Y-40640000D03*
%TO.P,E1,13*%
%TO.N,Net-(E1-Pad13)*%
X100330000Y-43180000D03*
%TO.P,E1,12*%
%TO.N,Net-(E1-Pad12)*%
X100330000Y-45720000D03*
%TO.P,E1,11*%
%TO.N,Net-(E1-Pad11)*%
X100330000Y-48260000D03*
%TO.P,E1,10*%
%TO.N,Net-(E1-Pad10)*%
X100330000Y-50800000D03*
%TO.P,E1,9*%
%TO.N,Net-(E1-Pad9)*%
X100330000Y-53340000D03*
%TO.P,E1,8*%
%TO.N,Net-(E1-Pad8)*%
X100330000Y-55880000D03*
%TO.P,E1,7*%
%TO.N,Net-(E1-Pad7)*%
X100330000Y-58420000D03*
%TO.P,E1,6*%
%TO.N,Net-(E1-Pad6)*%
X100330000Y-60960000D03*
%TO.P,E1,5*%
%TO.N,Net-(E1-Pad5)*%
X100330000Y-63500000D03*
%TO.P,E1,4*%
%TO.N,Net-(E1-Pad4)*%
X100330000Y-66040000D03*
%TO.P,E1,3*%
%TO.N,Net-(E1-Pad3)*%
X100330000Y-68580000D03*
%TO.P,E1,2*%
%TO.N,GND*%
X100330000Y-71120000D03*
D12*
%TO.P,E1,1*%
%TO.N,+3V3*%
X100330000Y-73660000D03*
%TD*%
%TO.P,C1,1*%
%TO.N,Net-(C1-Pad1)*%
%TA.AperFunction,SMDPad,CuDef*%
G36*
G01*
X101837500Y-90300000D02*
X101362500Y-90300000D01*
G75*
G02*
X101125000Y-90062500I0J237500D01*
G01*
X101125000Y-89487500D01*
G75*
G02*
X101362500Y-89250000I237500J0D01*
G01*
X101837500Y-89250000D01*
G75*
G02*
X102075000Y-89487500I0J-237500D01*
G01*
X102075000Y-90062500D01*
G75*
G02*
X101837500Y-90300000I-237500J0D01*
G01*
G37*
%TD.AperFunction*%
%TO.P,C1,2*%
%TO.N,GND*%
%TA.AperFunction,SMDPad,CuDef*%
G36*
G01*
X101837500Y-88550000D02*
X101362500Y-88550000D01*
G75*
G02*
X101125000Y-88312500I0J237500D01*
G01*
X101125000Y-87737500D01*
G75*
G02*
X101362500Y-87500000I237500J0D01*
G01*
X101837500Y-87500000D01*
G75*
G02*
X102075000Y-87737500I0J-237500D01*
G01*
X102075000Y-88312500D01*
G75*
G02*
X101837500Y-88550000I-237500J0D01*
G01*
G37*
%TD.AperFunction*%
%TD*%
D16*
%TO.N,*%
X69850000Y-36830000D03*
X69850000Y-95250000D03*
X128270000Y-95250000D03*
X128270000Y-36830000D03*
%TD*%
D17*
%TO.N,Net-(C1-Pad1)*%
X93980000Y-92710000D02*
X96915000Y-89775000D01*
X103265000Y-89775000D02*
X111760000Y-81280000D01*
X96915000Y-89775000D02*
X103265000Y-89775000D01*
%TO.N,+3V3*%
X100330000Y-73660000D02*
X100330000Y-74930000D01*
X91440000Y-83820000D02*
X91440000Y-85090000D01*
X100330000Y-74930000D02*
X91440000Y-83820000D01*
X106680000Y-81280000D02*
X106680000Y-73660000D01*
X100330000Y-73660000D02*
X106680000Y-73660000D01*
X76200000Y-83820000D02*
X87630000Y-83820000D01*
X88900000Y-85090000D02*
X91440000Y-85090000D01*
X87630000Y-83820000D02*
X88900000Y-85090000D01*
%TO.N,/SOLAR-*%
X124460000Y-48260000D02*
X120650000Y-44450000D01*
X120650000Y-44450000D02*
X120650000Y-36830000D01*
%TO.N,/SOLAR+*%
X124460000Y-62230000D02*
X115570000Y-53340000D01*
X115570000Y-53340000D02*
X115570000Y-36830000D01*
%TO.N,BATT+*%
X106680000Y-68580000D02*
X107950000Y-68580000D01*
X107950000Y-68580000D02*
X110490000Y-66040000D01*
X110490000Y-41910000D02*
X105410000Y-36830000D01*
X110490000Y-57150000D02*
X110490000Y-41910000D01*
X106680000Y-62230000D02*
X110490000Y-58420000D01*
X110490000Y-58420000D02*
X110490000Y-57150000D01*
X110490000Y-66040000D02*
X110490000Y-58420000D01*
%TO.N,Net-(R1-Pad2)*%
X81280000Y-91440000D02*
X81280000Y-93980000D01*
%TO.N,Net-(R2-Pad2)*%
X96520000Y-92710000D02*
X92710000Y-96520000D01*
X92710000Y-96520000D02*
X77470000Y-96520000D01*
X76200000Y-95250000D02*
X76200000Y-93980000D01*
X77470000Y-96520000D02*
X76200000Y-95250000D01*
X76200000Y-91440000D02*
X76200000Y-93980000D01*
%TO.N,ANE_OUT*%
X87630000Y-92710000D02*
X86360000Y-91440000D01*
X91440000Y-92710000D02*
X87630000Y-92710000D01*
X72390000Y-63500000D02*
X74930000Y-63500000D01*
X71120000Y-64770000D02*
X72390000Y-63500000D01*
X71120000Y-83820000D02*
X71120000Y-64770000D01*
X74930000Y-87630000D02*
X71120000Y-83820000D01*
X82550000Y-87630000D02*
X74930000Y-87630000D01*
X86360000Y-91440000D02*
X82550000Y-87630000D01*
%TD*%
D18*
%TO.N,GND*%
G36*
X125952823Y-34006511D02*
G01*
X125446511Y-34512823D01*
X125048705Y-35108182D01*
X124774691Y-35769710D01*
X124635000Y-36471984D01*
X124635000Y-37188016D01*
X124774691Y-37890290D01*
X125048705Y-38551818D01*
X125446511Y-39147177D01*
X125952823Y-39653489D01*
X126548182Y-40051295D01*
X127209710Y-40325309D01*
X127911984Y-40465000D01*
X128628016Y-40465000D01*
X129330290Y-40325309D01*
X129991818Y-40051295D01*
X130587177Y-39653489D01*
X131093489Y-39147177D01*
X131420001Y-38658517D01*
X131420000Y-93421481D01*
X131093489Y-92932823D01*
X130587177Y-92426511D01*
X129991818Y-92028705D01*
X129330290Y-91754691D01*
X128628016Y-91615000D01*
X127911984Y-91615000D01*
X127209710Y-91754691D01*
X126548182Y-92028705D01*
X125952823Y-92426511D01*
X125446511Y-92932823D01*
X125048705Y-93528182D01*
X124774691Y-94189710D01*
X124635000Y-94891984D01*
X124635000Y-95608016D01*
X124774691Y-96310290D01*
X125048705Y-96971818D01*
X125446511Y-97567177D01*
X125952823Y-98073489D01*
X126441481Y-98400000D01*
X71678519Y-98400000D01*
X72167177Y-98073489D01*
X72673489Y-97567177D01*
X73071295Y-96971818D01*
X73345309Y-96310290D01*
X73485000Y-95608016D01*
X73485000Y-94891984D01*
X73345309Y-94189710D01*
X73071295Y-93528182D01*
X72673489Y-92932823D01*
X72167177Y-92426511D01*
X71571818Y-92028705D01*
X70910290Y-91754691D01*
X70208016Y-91615000D01*
X69491984Y-91615000D01*
X68789710Y-91754691D01*
X68128182Y-92028705D01*
X67532823Y-92426511D01*
X67026511Y-92932823D01*
X66700000Y-93421481D01*
X66700000Y-38658519D01*
X67026511Y-39147177D01*
X67532823Y-39653489D01*
X68128182Y-40051295D01*
X68789710Y-40325309D01*
X69491984Y-40465000D01*
X70208016Y-40465000D01*
X70910290Y-40325309D01*
X71571818Y-40051295D01*
X72167177Y-39653489D01*
X72673489Y-39147177D01*
X73071295Y-38551818D01*
X73295000Y-38011747D01*
X73295000Y-38261033D01*
X73357832Y-38576912D01*
X73481082Y-38874463D01*
X73660013Y-39142252D01*
X73887748Y-39369987D01*
X73887767Y-39370000D01*
X73887748Y-39370013D01*
X73660013Y-39597748D01*
X73481082Y-39865537D01*
X73357832Y-40163088D01*
X73295000Y-40478967D01*
X73295000Y-40801033D01*
X73357832Y-41116912D01*
X73481082Y-41414463D01*
X73660013Y-41682252D01*
X73887748Y-41909987D01*
X73887767Y-41910000D01*
X73887748Y-41910013D01*
X73660013Y-42137748D01*
X73481082Y-42405537D01*
X73357832Y-42703088D01*
X73295000Y-43018967D01*
X73295000Y-43341033D01*
X73357832Y-43656912D01*
X73481082Y-43954463D01*
X73660013Y-44222252D01*
X73887748Y-44449987D01*
X73887767Y-44450000D01*
X73887748Y-44450013D01*
X73660013Y-44677748D01*
X73481082Y-44945537D01*
X73357832Y-45243088D01*
X73295000Y-45558967D01*
X73295000Y-45881033D01*
X73357832Y-46196912D01*
X73481082Y-46494463D01*
X73660013Y-46762252D01*
X73887748Y-46989987D01*
X73887767Y-46990000D01*
X73887748Y-46990013D01*
X73660013Y-47217748D01*
X73481082Y-47485537D01*
X73357832Y-47783088D01*
X73295000Y-48098967D01*
X73295000Y-48421033D01*
X73357832Y-48736912D01*
X73481082Y-49034463D01*
X73660013Y-49302252D01*
X73887748Y-49529987D01*
X73887767Y-49530000D01*
X73887748Y-49530013D01*
X73660013Y-49757748D01*
X73481082Y-50025537D01*
X73357832Y-50323088D01*
X73295000Y-50638967D01*
X73295000Y-50961033D01*
X73357832Y-51276912D01*
X73481082Y-51574463D01*
X73660013Y-51842252D01*
X73887748Y-52069987D01*
X73887767Y-52070000D01*
X73887748Y-52070013D01*
X73660013Y-52297748D01*
X73481082Y-52565537D01*
X73357832Y-52863088D01*
X73295000Y-53178967D01*
X73295000Y-53501033D01*
X73357832Y-53816912D01*
X73481082Y-54114463D01*
X73660013Y-54382252D01*
X73887748Y-54609987D01*
X73887767Y-54610000D01*
X73887748Y-54610013D01*
X73660013Y-54837748D01*
X73481082Y-55105537D01*
X73357832Y-55403088D01*
X73295000Y-55718967D01*
X73295000Y-56041033D01*
X73357832Y-56356912D01*
X73481082Y-56654463D01*
X73660013Y-56922252D01*
X73887748Y-57149987D01*
X73887767Y-57150000D01*
X73887748Y-57150013D01*
X73660013Y-57377748D01*
X73481082Y-57645537D01*
X73357832Y-57943088D01*
X73295000Y-58258967D01*
X73295000Y-58581033D01*
X73357832Y-58896912D01*
X73481082Y-59194463D01*
X73660013Y-59462252D01*
X73887748Y-59689987D01*
X73887767Y-59690000D01*
X73887748Y-59690013D01*
X73660013Y-59917748D01*
X73481082Y-60185537D01*
X73357832Y-60483088D01*
X73295000Y-60798967D01*
X73295000Y-61121033D01*
X73357832Y-61436912D01*
X73481082Y-61734463D01*
X73660013Y-62002252D01*
X73887748Y-62229987D01*
X73887767Y-62230000D01*
X73887748Y-62230013D01*
X73752761Y-62365000D01*
X72445743Y-62365000D01*
X72389999Y-62359510D01*
X72334255Y-62365000D01*
X72334248Y-62365000D01*
X72188493Y-62379356D01*
X72167500Y-62381423D01*
X72135821Y-62391033D01*
X71953553Y-62446324D01*
X71756377Y-62551716D01*
X71583551Y-62693551D01*
X71548008Y-62736860D01*
X70356860Y-63928009D01*
X70313552Y-63963551D01*
X70171717Y-64136377D01*
X70115384Y-64241770D01*
X70066324Y-64333554D01*
X70001423Y-64547502D01*
X69979509Y-64770000D01*
X69985001Y-64825762D01*
X69985000Y-83764248D01*
X69979509Y-83820000D01*
X69985000Y-83875751D01*
X70001423Y-84042498D01*
X70066324Y-84256446D01*
X70171716Y-84453623D01*
X70313551Y-84626449D01*
X70356865Y-84661996D01*
X74088013Y-88393146D01*
X74123551Y-88436449D01*
X74166854Y-88471987D01*
X74166856Y-88471989D01*
X74296377Y-88578284D01*
X74493553Y-88683676D01*
X74707501Y-88748577D01*
X74930000Y-88770491D01*
X74985752Y-88765000D01*
X82079869Y-88765000D01*
X85059427Y-91744560D01*
X85076304Y-91829405D01*
X85176939Y-92072359D01*
X85323038Y-92291013D01*
X85508987Y-92476962D01*
X85727641Y-92623061D01*
X85970595Y-92723696D01*
X86055442Y-92740573D01*
X86788008Y-93473140D01*
X86823551Y-93516449D01*
X86996377Y-93658284D01*
X87193553Y-93763676D01*
X87357705Y-93813471D01*
X87407500Y-93828577D01*
X87428493Y-93830644D01*
X87574248Y-93845000D01*
X87574255Y-93845000D01*
X87629999Y-93850490D01*
X87685743Y-93845000D01*
X89817379Y-93845000D01*
X89850498Y-93954180D01*
X89909463Y-94064494D01*
X89988815Y-94161185D01*
X90085506Y-94240537D01*
X90195820Y-94299502D01*
X90315518Y-94335812D01*
X90440000Y-94348072D01*
X92440000Y-94348072D01*
X92564482Y-94335812D01*
X92684180Y-94299502D01*
X92794494Y-94240537D01*
X92891185Y-94161185D01*
X92970537Y-94064494D01*
X92995191Y-94018370D01*
X93205537Y-94158918D01*
X93389677Y-94235191D01*
X92239869Y-95385000D01*
X85309088Y-95385000D01*
X85350537Y-95334494D01*
X85409502Y-95224180D01*
X85445812Y-95104482D01*
X85458072Y-94980000D01*
X85455000Y-94711750D01*
X85296250Y-94553000D01*
X84393000Y-94553000D01*
X84393000Y-94573000D01*
X83247000Y-94573000D01*
X83247000Y-94553000D01*
X83227000Y-94553000D01*
X83227000Y-93407000D01*
X83247000Y-93407000D01*
X83247000Y-92503750D01*
X84393000Y-92503750D01*
X84393000Y-93407000D01*
X85296250Y-93407000D01*
X85455000Y-93248250D01*
X85458072Y-92980000D01*
X85445812Y-92855518D01*
X85409502Y-92735820D01*
X85350537Y-92625506D01*
X85271185Y-92528815D01*
X85174494Y-92449463D01*
X85064180Y-92390498D01*
X84944482Y-92354188D01*
X84820000Y-92341928D01*
X84551750Y-92345000D01*
X84393000Y-92503750D01*
X83247000Y-92503750D01*
X83088250Y-92345000D01*
X82820000Y-92341928D01*
X82695518Y-92354188D01*
X82575820Y-92390498D01*
X82465506Y-92449463D01*
X82415000Y-92490912D01*
X82415000Y-92144288D01*
X82463061Y-92072359D01*
X82563696Y-91829405D01*
X82615000Y-91571486D01*
X82615000Y-91308514D01*
X82563696Y-91050595D01*
X82463061Y-90807641D01*
X82316962Y-90588987D01*
X82131013Y-90403038D01*
X81912359Y-90256939D01*
X81669405Y-90156304D01*
X81411486Y-90105000D01*
X81148514Y-90105000D01*
X80890595Y-90156304D01*
X80647641Y-90256939D01*
X80428987Y-90403038D01*
X80243038Y-90588987D01*
X80096939Y-90807641D01*
X79996304Y-91050595D01*
X79945000Y-91308514D01*
X79945000Y-91571486D01*
X79996304Y-91829405D01*
X80096939Y-92072359D01*
X80145000Y-92144288D01*
X80145001Y-92802760D01*
X80010013Y-92937748D01*
X79831082Y-93205537D01*
X79707832Y-93503088D01*
X79645000Y-93818967D01*
X79645000Y-93885344D01*
X79550344Y-93980000D01*
X79645000Y-94074656D01*
X79645000Y-94141033D01*
X79707832Y-94456912D01*
X79831082Y-94754463D01*
X80010013Y-95022252D01*
X80237748Y-95249987D01*
X80439809Y-95385000D01*
X79284498Y-95385000D01*
X79302920Y-95353264D01*
X78740000Y-94790344D01*
X78725858Y-94804487D01*
X77915514Y-93994143D01*
X77929656Y-93980000D01*
X77835000Y-93885344D01*
X77835000Y-93818967D01*
X77772168Y-93503088D01*
X77648918Y-93205537D01*
X77469987Y-92937748D01*
X77335000Y-92802761D01*
X77335000Y-92606736D01*
X78177080Y-92606736D01*
X78740000Y-93169656D01*
X79302920Y-92606736D01*
X79181475Y-92397516D01*
X78864265Y-92341796D01*
X78542280Y-92349031D01*
X78298525Y-92397516D01*
X78177080Y-92606736D01*
X77335000Y-92606736D01*
X77335000Y-92144288D01*
X77383061Y-92072359D01*
X77483696Y-91829405D01*
X77535000Y-91571486D01*
X77535000Y-91308514D01*
X77483696Y-91050595D01*
X77383061Y-90807641D01*
X77236962Y-90588987D01*
X77051013Y-90403038D01*
X76832359Y-90256939D01*
X76589405Y-90156304D01*
X76331486Y-90105000D01*
X76068514Y-90105000D01*
X75810595Y-90156304D01*
X75567641Y-90256939D01*
X75348987Y-90403038D01*
X75163038Y-90588987D01*
X75016939Y-90807641D01*
X74916304Y-91050595D01*
X74865000Y-91308514D01*
X74865000Y-91571486D01*
X74916304Y-91829405D01*
X75016939Y-92072359D01*
X75065000Y-92144288D01*
X75065001Y-92802760D01*
X74930013Y-92937748D01*
X74751082Y-93205537D01*
X74627832Y-93503088D01*
X74565000Y-93818967D01*
X74565000Y-94141033D01*
X74627832Y-94456912D01*
X74751082Y-94754463D01*
X74930013Y-95022252D01*
X75065000Y-95157239D01*
X75065000Y-95194249D01*
X75059509Y-95250000D01*
X75065000Y-95305751D01*
X75081423Y-95472498D01*
X75146324Y-95686446D01*
X75251716Y-95883623D01*
X75393551Y-96056449D01*
X75436865Y-96091996D01*
X76628008Y-97283140D01*
X76663551Y-97326449D01*
X76836377Y-97468284D01*
X77033553Y-97573676D01*
X77197705Y-97623471D01*
X77247500Y-97638577D01*
X77268493Y-97640644D01*
X77414248Y-97655000D01*
X77414255Y-97655000D01*
X77469999Y-97660490D01*
X77525743Y-97655000D01*
X92654249Y-97655000D01*
X92710000Y-97660491D01*
X92765751Y-97655000D01*
X92765752Y-97655000D01*
X92932499Y-97638577D01*
X93146447Y-97573676D01*
X93343623Y-97468284D01*
X93516449Y-97326449D01*
X93551996Y-97283135D01*
X96490133Y-94345000D01*
X96681033Y-94345000D01*
X96996912Y-94282168D01*
X97294463Y-94158918D01*
X97562252Y-93979987D01*
X97789987Y-93752252D01*
X97796716Y-93742181D01*
X97821648Y-93777602D01*
X98053721Y-93998679D01*
X98254506Y-94132815D01*
X98487000Y-94070509D01*
X98487000Y-93283000D01*
X99633000Y-93283000D01*
X99633000Y-94070509D01*
X99865494Y-94132815D01*
X100066279Y-93998679D01*
X100298352Y-93777602D01*
X100482836Y-93515498D01*
X100432576Y-93283000D01*
X99633000Y-93283000D01*
X98487000Y-93283000D01*
X98467000Y-93283000D01*
X98467000Y-92137000D01*
X98487000Y-92137000D01*
X98487000Y-91349491D01*
X99633000Y-91349491D01*
X99633000Y-92137000D01*
X100432576Y-92137000D01*
X100482836Y-91904502D01*
X100298352Y-91642398D01*
X100066279Y-91421321D01*
X99865494Y-91287185D01*
X99633000Y-91349491D01*
X98487000Y-91349491D01*
X98254506Y-91287185D01*
X98053721Y-91421321D01*
X97821648Y-91642398D01*
X97796716Y-91677819D01*
X97789987Y-91667748D01*
X97562252Y-91440013D01*
X97294463Y-91261082D01*
X97110323Y-91184809D01*
X97385132Y-90910000D01*
X101154604Y-90910000D01*
X101191684Y-90921248D01*
X101362500Y-90938072D01*
X101837500Y-90938072D01*
X102008316Y-90921248D01*
X102045396Y-90910000D01*
X103209249Y-90910000D01*
X103265000Y-90915491D01*
X103320751Y-90910000D01*
X103320752Y-90910000D01*
X103487499Y-90893577D01*
X103701447Y-90828676D01*
X103898623Y-90723284D01*
X104071449Y-90581449D01*
X104106996Y-90538135D01*
X111730132Y-82915000D01*
X111921033Y-82915000D01*
X112236912Y-82852168D01*
X112534463Y-82728918D01*
X112647687Y-82653264D01*
X116277080Y-82653264D01*
X116398525Y-82862484D01*
X116715735Y-82918204D01*
X117037720Y-82910969D01*
X117281475Y-82862484D01*
X117402920Y-82653264D01*
X116840000Y-82090344D01*
X116277080Y-82653264D01*
X112647687Y-82653264D01*
X112802252Y-82549987D01*
X113029987Y-82322252D01*
X113208918Y-82054463D01*
X113332168Y-81756912D01*
X113395000Y-81441033D01*
X113395000Y-81155735D01*
X115201796Y-81155735D01*
X115209031Y-81477720D01*
X115257516Y-81721475D01*
X115466736Y-81842920D01*
X116029656Y-81280000D01*
X117650344Y-81280000D01*
X118213264Y-81842920D01*
X118422484Y-81721475D01*
X118478204Y-81404265D01*
X118470969Y-81082280D01*
X118422484Y-80838525D01*
X118213264Y-80717080D01*
X117650344Y-81280000D01*
X116029656Y-81280000D01*
X115466736Y-80717080D01*
X115257516Y-80838525D01*
X115201796Y-81155735D01*
X113395000Y-81155735D01*
X113395000Y-81118967D01*
X113332168Y-80803088D01*
X113208918Y-80505537D01*
X113029987Y-80237748D01*
X112802252Y-80010013D01*
X112647688Y-79906736D01*
X116277080Y-79906736D01*
X116840000Y-80469656D01*
X117402920Y-79906736D01*
X117281475Y-79697516D01*
X116964265Y-79641796D01*
X116642280Y-79649031D01*
X116398525Y-79697516D01*
X116277080Y-79906736D01*
X112647688Y-79906736D01*
X112534463Y-79831082D01*
X112236912Y-79707832D01*
X111921033Y-79645000D01*
X111598967Y-79645000D01*
X111283088Y-79707832D01*
X110985537Y-79831082D01*
X110717748Y-80010013D01*
X110490013Y-80237748D01*
X110311082Y-80505537D01*
X110187832Y-80803088D01*
X110125000Y-81118967D01*
X110125000Y-81309868D01*
X102794869Y-88640000D01*
X102704994Y-88640000D01*
X102710000Y-88581750D01*
X102551250Y-88423000D01*
X101948000Y-88423000D01*
X101948000Y-88550000D01*
X101252000Y-88550000D01*
X101252000Y-88423000D01*
X100648750Y-88423000D01*
X100490000Y-88581750D01*
X100495006Y-88640000D01*
X96970752Y-88640000D01*
X96915000Y-88634509D01*
X96859248Y-88640000D01*
X96692501Y-88656423D01*
X96478553Y-88721324D01*
X96281377Y-88826716D01*
X96108551Y-88968551D01*
X96073011Y-89011857D01*
X94009869Y-91075000D01*
X93818967Y-91075000D01*
X93503088Y-91137832D01*
X93205537Y-91261082D01*
X92995191Y-91401630D01*
X92970537Y-91355506D01*
X92891185Y-91258815D01*
X92794494Y-91179463D01*
X92684180Y-91120498D01*
X92564482Y-91084188D01*
X92440000Y-91071928D01*
X90440000Y-91071928D01*
X90315518Y-91084188D01*
X90195820Y-91120498D01*
X90085506Y-91179463D01*
X89988815Y-91258815D01*
X89909463Y-91355506D01*
X89850498Y-91465820D01*
X89817379Y-91575000D01*
X88100132Y-91575000D01*
X87660573Y-91135442D01*
X87643696Y-91050595D01*
X87543061Y-90807641D01*
X87396962Y-90588987D01*
X87211013Y-90403038D01*
X86992359Y-90256939D01*
X86749405Y-90156304D01*
X86664560Y-90139427D01*
X83993382Y-87468250D01*
X100490000Y-87468250D01*
X100648750Y-87627000D01*
X101252000Y-87627000D01*
X101252000Y-87023750D01*
X101948000Y-87023750D01*
X101948000Y-87627000D01*
X102551250Y-87627000D01*
X102710000Y-87468250D01*
X102703046Y-87387330D01*
X102668997Y-87266970D01*
X102612122Y-87155564D01*
X102534605Y-87057395D01*
X102439426Y-86976235D01*
X102330242Y-86915203D01*
X102211249Y-86876645D01*
X102106750Y-86865000D01*
X101948000Y-87023750D01*
X101252000Y-87023750D01*
X101093250Y-86865000D01*
X100988751Y-86876645D01*
X100869758Y-86915203D01*
X100760574Y-86976235D01*
X100665395Y-87057395D01*
X100587878Y-87155564D01*
X100531003Y-87266970D01*
X100496954Y-87387330D01*
X100490000Y-87468250D01*
X83993382Y-87468250D01*
X83391996Y-86866865D01*
X83356449Y-86823551D01*
X83183623Y-86681716D01*
X82986447Y-86576324D01*
X82772499Y-86511423D01*
X82605752Y-86495000D01*
X82605751Y-86495000D01*
X82550000Y-86489509D01*
X82494249Y-86495000D01*
X75400133Y-86495000D01*
X72593646Y-83688514D01*
X74865000Y-83688514D01*
X74865000Y-83951486D01*
X74916304Y-84209405D01*
X75016939Y-84452359D01*
X75163038Y-84671013D01*
X75348987Y-84856962D01*
X75567641Y-85003061D01*
X75810595Y-85103696D01*
X76068514Y-85155000D01*
X76331486Y-85155000D01*
X76589405Y-85103696D01*
X76832359Y-85003061D01*
X76904288Y-84955000D01*
X80575712Y-84955000D01*
X80647641Y-85003061D01*
X80890595Y-85103696D01*
X81148514Y-85155000D01*
X81411486Y-85155000D01*
X81669405Y-85103696D01*
X81912359Y-85003061D01*
X81984288Y-84955000D01*
X85655712Y-84955000D01*
X85727641Y-85003061D01*
X85970595Y-85103696D01*
X86228514Y-85155000D01*
X86491486Y-85155000D01*
X86749405Y-85103696D01*
X86992359Y-85003061D01*
X87064288Y-84955000D01*
X87159869Y-84955000D01*
X88058008Y-85853140D01*
X88093551Y-85896449D01*
X88266377Y-86038284D01*
X88463553Y-86143676D01*
X88627705Y-86193471D01*
X88677500Y-86208577D01*
X88698493Y-86210644D01*
X88844248Y-86225000D01*
X88844255Y-86225000D01*
X88899999Y-86230490D01*
X88955743Y-86225000D01*
X90262761Y-86225000D01*
X90397748Y-86359987D01*
X90665537Y-86538918D01*
X90963088Y-86662168D01*
X91278967Y-86725000D01*
X91601033Y-86725000D01*
X91916912Y-86662168D01*
X92214463Y-86538918D01*
X92482252Y-86359987D01*
X92709987Y-86132252D01*
X92710000Y-86132233D01*
X92710013Y-86132252D01*
X92937748Y-86359987D01*
X93205537Y-86538918D01*
X93503088Y-86662168D01*
X93818967Y-86725000D01*
X94141033Y-86725000D01*
X94456912Y-86662168D01*
X94754463Y-86538918D01*
X95022252Y-86359987D01*
X95249987Y-86132252D01*
X95250000Y-86132233D01*
X95250013Y-86132252D01*
X95477748Y-86359987D01*
X95745537Y-86538918D01*
X96043088Y-86662168D01*
X96358967Y-86725000D01*
X96681033Y-86725000D01*
X96996912Y-86662168D01*
X97294463Y-86538918D01*
X97562252Y-86359987D01*
X97789987Y-86132252D01*
X97790000Y-86132233D01*
X97790013Y-86132252D01*
X98017748Y-86359987D01*
X98285537Y-86538918D01*
X98583088Y-86662168D01*
X98898967Y-86725000D01*
X99221033Y-86725000D01*
X99536912Y-86662168D01*
X99834463Y-86538918D01*
X100102252Y-86359987D01*
X100329987Y-86132252D01*
X100508918Y-85864463D01*
X100632168Y-85566912D01*
X100695000Y-85251033D01*
X100695000Y-84928967D01*
X100632168Y-84613088D01*
X100508918Y-84315537D01*
X100329987Y-84047748D01*
X100102252Y-83820013D01*
X99834463Y-83641082D01*
X99536912Y-83517832D01*
X99221033Y-83455000D01*
X98898967Y-83455000D01*
X98583088Y-83517832D01*
X98285537Y-83641082D01*
X98017748Y-83820013D01*
X97790013Y-84047748D01*
X97790000Y-84047767D01*
X97789987Y-84047748D01*
X97562252Y-83820013D01*
X97294463Y-83641082D01*
X96996912Y-83517832D01*
X96681033Y-83455000D01*
X96358967Y-83455000D01*
X96043088Y-83517832D01*
X95745537Y-83641082D01*
X95477748Y-83820013D01*
X95250013Y-84047748D01*
X95250000Y-84047767D01*
X95249987Y-84047748D01*
X95022252Y-83820013D01*
X94754463Y-83641082D01*
X94456912Y-83517832D01*
X94141033Y-83455000D01*
X93818967Y-83455000D01*
X93503088Y-83517832D01*
X93237139Y-83627992D01*
X101093146Y-75771987D01*
X101136449Y-75736449D01*
X101278284Y-75563623D01*
X101383676Y-75366447D01*
X101406709Y-75290517D01*
X101454482Y-75285812D01*
X101574180Y-75249502D01*
X101684494Y-75190537D01*
X101781185Y-75111185D01*
X101860537Y-75014494D01*
X101919502Y-74904180D01*
X101952621Y-74795000D01*
X105502761Y-74795000D01*
X105545001Y-74837240D01*
X105545000Y-79657379D01*
X105435820Y-79690498D01*
X105325506Y-79749463D01*
X105228815Y-79828815D01*
X105149463Y-79925506D01*
X105090498Y-80035820D01*
X105054188Y-80155518D01*
X105041928Y-80280000D01*
X105041928Y-82280000D01*
X105054188Y-82404482D01*
X105090498Y-82524180D01*
X105149463Y-82634494D01*
X105228815Y-82731185D01*
X105325506Y-82810537D01*
X105435820Y-82869502D01*
X105555518Y-82905812D01*
X105680000Y-82918072D01*
X107680000Y-82918072D01*
X107804482Y-82905812D01*
X107924180Y-82869502D01*
X108034494Y-82810537D01*
X108131185Y-82731185D01*
X108210537Y-82634494D01*
X108269502Y-82524180D01*
X108305812Y-82404482D01*
X108318072Y-82280000D01*
X108318072Y-80280000D01*
X108305812Y-80155518D01*
X108269502Y-80035820D01*
X108210537Y-79925506D01*
X108131185Y-79828815D01*
X108034494Y-79749463D01*
X107924180Y-79690498D01*
X107815000Y-79657379D01*
X107815000Y-74837239D01*
X107949987Y-74702252D01*
X108128918Y-74434463D01*
X108252168Y-74136912D01*
X108315000Y-73821033D01*
X108315000Y-73498967D01*
X108252168Y-73183088D01*
X108128918Y-72885537D01*
X107949987Y-72617748D01*
X107722252Y-72390013D01*
X107454463Y-72211082D01*
X107156912Y-72087832D01*
X106841033Y-72025000D01*
X106774656Y-72025000D01*
X106680000Y-71930344D01*
X106585344Y-72025000D01*
X106518967Y-72025000D01*
X106203088Y-72087832D01*
X105905537Y-72211082D01*
X105637748Y-72390013D01*
X105502761Y-72525000D01*
X101952621Y-72525000D01*
X101919502Y-72415820D01*
X101860537Y-72305506D01*
X101781185Y-72208815D01*
X101684494Y-72129463D01*
X101657516Y-72115043D01*
X101896453Y-71876106D01*
X101703266Y-71682919D01*
X101912484Y-71561475D01*
X101968204Y-71244265D01*
X101962620Y-70995735D01*
X105041796Y-70995735D01*
X105049031Y-71317720D01*
X105097516Y-71561475D01*
X105306736Y-71682920D01*
X105869656Y-71120000D01*
X107490344Y-71120000D01*
X108053264Y-71682920D01*
X108262484Y-71561475D01*
X108318204Y-71244265D01*
X108310969Y-70922280D01*
X108262484Y-70678525D01*
X108053264Y-70557080D01*
X107490344Y-71120000D01*
X105869656Y-71120000D01*
X105306736Y-70557080D01*
X105097516Y-70678525D01*
X105041796Y-70995735D01*
X101962620Y-70995735D01*
X101960969Y-70922280D01*
X101912484Y-70678525D01*
X101703264Y-70557080D01*
X101140344Y-71120000D01*
X101154487Y-71134143D01*
X100344143Y-71944487D01*
X100330000Y-71930344D01*
X100315858Y-71944487D01*
X99505514Y-71134143D01*
X99519656Y-71120000D01*
X98956736Y-70557080D01*
X98747516Y-70678525D01*
X98691796Y-70995735D01*
X98699031Y-71317720D01*
X98747516Y-71561475D01*
X98956734Y-71682919D01*
X98763547Y-71876106D01*
X99002484Y-72115043D01*
X98975506Y-72129463D01*
X98878815Y-72208815D01*
X98799463Y-72305506D01*
X98740498Y-72415820D01*
X98704188Y-72535518D01*
X98691928Y-72660000D01*
X98691928Y-74660000D01*
X98704188Y-74784482D01*
X98740498Y-74904180D01*
X98744047Y-74910820D01*
X90676865Y-82978004D01*
X90633551Y-83013551D01*
X90491716Y-83186377D01*
X90386325Y-83383553D01*
X90386324Y-83383554D01*
X90321423Y-83597502D01*
X90299509Y-83820000D01*
X90305000Y-83875751D01*
X90305000Y-83912761D01*
X90262761Y-83955000D01*
X89370132Y-83955000D01*
X88471996Y-83056865D01*
X88436449Y-83013551D01*
X88263623Y-82871716D01*
X88066447Y-82766324D01*
X87852499Y-82701423D01*
X87685752Y-82685000D01*
X87685751Y-82685000D01*
X87630000Y-82679509D01*
X87574249Y-82685000D01*
X87064288Y-82685000D01*
X86992359Y-82636939D01*
X86749405Y-82536304D01*
X86491486Y-82485000D01*
X86228514Y-82485000D01*
X85970595Y-82536304D01*
X85727641Y-82636939D01*
X85655712Y-82685000D01*
X81984288Y-82685000D01*
X81912359Y-82636939D01*
X81669405Y-82536304D01*
X81411486Y-82485000D01*
X81148514Y-82485000D01*
X80890595Y-82536304D01*
X80647641Y-82636939D01*
X80575712Y-82685000D01*
X76904288Y-82685000D01*
X76832359Y-82636939D01*
X76589405Y-82536304D01*
X76331486Y-82485000D01*
X76068514Y-82485000D01*
X75810595Y-82536304D01*
X75567641Y-82636939D01*
X75348987Y-82783038D01*
X75163038Y-82968987D01*
X75016939Y-83187641D01*
X74916304Y-83430595D01*
X74865000Y-83688514D01*
X72593646Y-83688514D01*
X72255000Y-83349869D01*
X72255000Y-65240131D01*
X72860132Y-64635000D01*
X73752761Y-64635000D01*
X73887748Y-64769987D01*
X73887767Y-64770000D01*
X73887748Y-64770013D01*
X73660013Y-64997748D01*
X73481082Y-65265537D01*
X73357832Y-65563088D01*
X73295000Y-65878967D01*
X73295000Y-66201033D01*
X73357832Y-66516912D01*
X73481082Y-66814463D01*
X73660013Y-67082252D01*
X73887748Y-67309987D01*
X73887767Y-67310000D01*
X73887748Y-67310013D01*
X73660013Y-67537748D01*
X73481082Y-67805537D01*
X73357832Y-68103088D01*
X73295000Y-68418967D01*
X73295000Y-68741033D01*
X73357832Y-69056912D01*
X73481082Y-69354463D01*
X73660013Y-69622252D01*
X73887748Y-69849987D01*
X73887767Y-69850000D01*
X73887748Y-69850013D01*
X73660013Y-70077748D01*
X73481082Y-70345537D01*
X73357832Y-70643088D01*
X73295000Y-70958967D01*
X73295000Y-71281033D01*
X73357832Y-71596912D01*
X73481082Y-71894463D01*
X73660013Y-72162252D01*
X73887748Y-72389987D01*
X73887767Y-72390000D01*
X73887748Y-72390013D01*
X73660013Y-72617748D01*
X73481082Y-72885537D01*
X73357832Y-73183088D01*
X73295000Y-73498967D01*
X73295000Y-73821033D01*
X73357832Y-74136912D01*
X73481082Y-74434463D01*
X73660013Y-74702252D01*
X73887748Y-74929987D01*
X74155537Y-75108918D01*
X74453088Y-75232168D01*
X74768967Y-75295000D01*
X75091033Y-75295000D01*
X75406912Y-75232168D01*
X75704463Y-75108918D01*
X75972252Y-74929987D01*
X76199987Y-74702252D01*
X76378918Y-74434463D01*
X76502168Y-74136912D01*
X76565000Y-73821033D01*
X76565000Y-73498967D01*
X76502168Y-73183088D01*
X76378918Y-72885537D01*
X76199987Y-72617748D01*
X75972252Y-72390013D01*
X75972233Y-72390000D01*
X75972252Y-72389987D01*
X76199987Y-72162252D01*
X76378918Y-71894463D01*
X76502168Y-71596912D01*
X76565000Y-71281033D01*
X76565000Y-70958967D01*
X76502168Y-70643088D01*
X76378918Y-70345537D01*
X76199987Y-70077748D01*
X75972252Y-69850013D01*
X75972233Y-69850000D01*
X75972252Y-69849987D01*
X76199987Y-69622252D01*
X76378918Y-69354463D01*
X76502168Y-69056912D01*
X76565000Y-68741033D01*
X76565000Y-68418967D01*
X76502168Y-68103088D01*
X76378918Y-67805537D01*
X76199987Y-67537748D01*
X75972252Y-67310013D01*
X75972233Y-67310000D01*
X75972252Y-67309987D01*
X76199987Y-67082252D01*
X76378918Y-66814463D01*
X76502168Y-66516912D01*
X76565000Y-66201033D01*
X76565000Y-65878967D01*
X76502168Y-65563088D01*
X76378918Y-65265537D01*
X76199987Y-64997748D01*
X75972252Y-64770013D01*
X75972233Y-64770000D01*
X75972252Y-64769987D01*
X76199987Y-64542252D01*
X76378918Y-64274463D01*
X76502168Y-63976912D01*
X76565000Y-63661033D01*
X76565000Y-63338967D01*
X76502168Y-63023088D01*
X76378918Y-62725537D01*
X76199987Y-62457748D01*
X75972252Y-62230013D01*
X75972233Y-62230000D01*
X75972252Y-62229987D01*
X76199987Y-62002252D01*
X76378918Y-61734463D01*
X76502168Y-61436912D01*
X76565000Y-61121033D01*
X76565000Y-60798967D01*
X76502168Y-60483088D01*
X76378918Y-60185537D01*
X76199987Y-59917748D01*
X75972252Y-59690013D01*
X75972233Y-59690000D01*
X75972252Y-59689987D01*
X76199987Y-59462252D01*
X76378918Y-59194463D01*
X76502168Y-58896912D01*
X76565000Y-58581033D01*
X76565000Y-58258967D01*
X76502168Y-57943088D01*
X76378918Y-57645537D01*
X76199987Y-57377748D01*
X75972252Y-57150013D01*
X75972233Y-57150000D01*
X75972252Y-57149987D01*
X76199987Y-56922252D01*
X76378918Y-56654463D01*
X76502168Y-56356912D01*
X76565000Y-56041033D01*
X76565000Y-55718967D01*
X76502168Y-55403088D01*
X76378918Y-55105537D01*
X76199987Y-54837748D01*
X75972252Y-54610013D01*
X75972233Y-54610000D01*
X75972252Y-54609987D01*
X76199987Y-54382252D01*
X76378918Y-54114463D01*
X76502168Y-53816912D01*
X76565000Y-53501033D01*
X76565000Y-53178967D01*
X76502168Y-52863088D01*
X76378918Y-52565537D01*
X76199987Y-52297748D01*
X75972252Y-52070013D01*
X75972233Y-52070000D01*
X75972252Y-52069987D01*
X76199987Y-51842252D01*
X76378918Y-51574463D01*
X76502168Y-51276912D01*
X76565000Y-50961033D01*
X76565000Y-50638967D01*
X76502168Y-50323088D01*
X76378918Y-50025537D01*
X76199987Y-49757748D01*
X75972252Y-49530013D01*
X75972233Y-49530000D01*
X75972252Y-49529987D01*
X76199987Y-49302252D01*
X76378918Y-49034463D01*
X76502168Y-48736912D01*
X76565000Y-48421033D01*
X76565000Y-48098967D01*
X76502168Y-47783088D01*
X76378918Y-47485537D01*
X76199987Y-47217748D01*
X75972252Y-46990013D01*
X75972233Y-46990000D01*
X75972252Y-46989987D01*
X76199987Y-46762252D01*
X76378918Y-46494463D01*
X76502168Y-46196912D01*
X76565000Y-45881033D01*
X76565000Y-45558967D01*
X76502168Y-45243088D01*
X76378918Y-44945537D01*
X76199987Y-44677748D01*
X75972252Y-44450013D01*
X75972233Y-44450000D01*
X75972252Y-44449987D01*
X76199987Y-44222252D01*
X76378918Y-43954463D01*
X76502168Y-43656912D01*
X76565000Y-43341033D01*
X76565000Y-43018967D01*
X76502168Y-42703088D01*
X76378918Y-42405537D01*
X76199987Y-42137748D01*
X75972252Y-41910013D01*
X75972233Y-41910000D01*
X75972252Y-41909987D01*
X76199987Y-41682252D01*
X76378918Y-41414463D01*
X76502168Y-41116912D01*
X76565000Y-40801033D01*
X76565000Y-40478967D01*
X76502168Y-40163088D01*
X76378918Y-39865537D01*
X76199987Y-39597748D01*
X75972252Y-39370013D01*
X75972233Y-39370000D01*
X75972252Y-39369987D01*
X76199987Y-39142252D01*
X76378918Y-38874463D01*
X76502168Y-38576912D01*
X76565000Y-38261033D01*
X76565000Y-37938967D01*
X76502168Y-37623088D01*
X76378918Y-37325537D01*
X76199987Y-37057748D01*
X76131048Y-36988809D01*
X82870000Y-36988809D01*
X82870000Y-77311190D01*
X92840000Y-77311190D01*
X92840000Y-37938967D01*
X98695000Y-37938967D01*
X98695000Y-38261033D01*
X98757832Y-38576912D01*
X98881082Y-38874463D01*
X99060013Y-39142252D01*
X99287748Y-39369987D01*
X99287767Y-39370000D01*
X99287748Y-39370013D01*
X99060013Y-39597748D01*
X98881082Y-39865537D01*
X98757832Y-40163088D01*
X98695000Y-40478967D01*
X98695000Y-40801033D01*
X98757832Y-41116912D01*
X98881082Y-41414463D01*
X99060013Y-41682252D01*
X99287748Y-41909987D01*
X99287767Y-41910000D01*
X99287748Y-41910013D01*
X99060013Y-42137748D01*
X98881082Y-42405537D01*
X98757832Y-42703088D01*
X98695000Y-43018967D01*
X98695000Y-43341033D01*
X98757832Y-43656912D01*
X98881082Y-43954463D01*
X99060013Y-44222252D01*
X99287748Y-44449987D01*
X99287767Y-44450000D01*
X99287748Y-44450013D01*
X99060013Y-44677748D01*
X98881082Y-44945537D01*
X98757832Y-45243088D01*
X98695000Y-45558967D01*
X98695000Y-45881033D01*
X98757832Y-46196912D01*
X98881082Y-46494463D01*
X99060013Y-46762252D01*
X99287748Y-46989987D01*
X99287767Y-46990000D01*
X99287748Y-46990013D01*
X99060013Y-47217748D01*
X98881082Y-47485537D01*
X98757832Y-47783088D01*
X98695000Y-48098967D01*
X98695000Y-48421033D01*
X98757832Y-48736912D01*
X98881082Y-49034463D01*
X99060013Y-49302252D01*
X99287748Y-49529987D01*
X99287767Y-49530000D01*
X99287748Y-49530013D01*
X99060013Y-49757748D01*
X98881082Y-50025537D01*
X98757832Y-50323088D01*
X98695000Y-50638967D01*
X98695000Y-50961033D01*
X98757832Y-51276912D01*
X98881082Y-51574463D01*
X99060013Y-51842252D01*
X99287748Y-52069987D01*
X99287767Y-52070000D01*
X99287748Y-52070013D01*
X99060013Y-52297748D01*
X98881082Y-52565537D01*
X98757832Y-52863088D01*
X98695000Y-53178967D01*
X98695000Y-53501033D01*
X98757832Y-53816912D01*
X98881082Y-54114463D01*
X99060013Y-54382252D01*
X99287748Y-54609987D01*
X99287767Y-54610000D01*
X99287748Y-54610013D01*
X99060013Y-54837748D01*
X98881082Y-55105537D01*
X98757832Y-55403088D01*
X98695000Y-55718967D01*
X98695000Y-56041033D01*
X98757832Y-56356912D01*
X98881082Y-56654463D01*
X99060013Y-56922252D01*
X99287748Y-57149987D01*
X99287767Y-57150000D01*
X99287748Y-57150013D01*
X99060013Y-57377748D01*
X98881082Y-57645537D01*
X98757832Y-57943088D01*
X98695000Y-58258967D01*
X98695000Y-58581033D01*
X98757832Y-58896912D01*
X98881082Y-59194463D01*
X99060013Y-59462252D01*
X99287748Y-59689987D01*
X99287767Y-59690000D01*
X99287748Y-59690013D01*
X99060013Y-59917748D01*
X98881082Y-60185537D01*
X98757832Y-60483088D01*
X98695000Y-60798967D01*
X98695000Y-61121033D01*
X98757832Y-61436912D01*
X98881082Y-61734463D01*
X99060013Y-62002252D01*
X99287748Y-62229987D01*
X99287767Y-62230000D01*
X99287748Y-62230013D01*
X99060013Y-62457748D01*
X98881082Y-62725537D01*
X98757832Y-63023088D01*
X98695000Y-63338967D01*
X98695000Y-63661033D01*
X98757832Y-63976912D01*
X98881082Y-64274463D01*
X99060013Y-64542252D01*
X99287748Y-64769987D01*
X99287767Y-64770000D01*
X99287748Y-64770013D01*
X99060013Y-64997748D01*
X98881082Y-65265537D01*
X98757832Y-65563088D01*
X98695000Y-65878967D01*
X98695000Y-66201033D01*
X98757832Y-66516912D01*
X98881082Y-66814463D01*
X99060013Y-67082252D01*
X99287748Y-67309987D01*
X99287767Y-67310000D01*
X99287748Y-67310013D01*
X99060013Y-67537748D01*
X98881082Y-67805537D01*
X98757832Y-68103088D01*
X98695000Y-68418967D01*
X98695000Y-68741033D01*
X98757832Y-69056912D01*
X98881082Y-69354463D01*
X99060013Y-69622252D01*
X99287748Y-69849987D01*
X99555537Y-70028918D01*
X99853088Y-70152168D01*
X100168967Y-70215000D01*
X100235344Y-70215000D01*
X100330000Y-70309656D01*
X100424656Y-70215000D01*
X100491033Y-70215000D01*
X100806912Y-70152168D01*
X101104463Y-70028918D01*
X101372252Y-69849987D01*
X101599987Y-69622252D01*
X101778918Y-69354463D01*
X101902168Y-69056912D01*
X101965000Y-68741033D01*
X101965000Y-68418967D01*
X101902168Y-68103088D01*
X101778918Y-67805537D01*
X101599987Y-67537748D01*
X101372252Y-67310013D01*
X101372233Y-67310000D01*
X101372252Y-67309987D01*
X101599987Y-67082252D01*
X101778918Y-66814463D01*
X101902168Y-66516912D01*
X101965000Y-66201033D01*
X101965000Y-65878967D01*
X101902168Y-65563088D01*
X101778918Y-65265537D01*
X101599987Y-64997748D01*
X101372252Y-64770013D01*
X101372233Y-64770000D01*
X101372252Y-64769987D01*
X101599987Y-64542252D01*
X101778918Y-64274463D01*
X101902168Y-63976912D01*
X101965000Y-63661033D01*
X101965000Y-63338967D01*
X101902168Y-63023088D01*
X101778918Y-62725537D01*
X101599987Y-62457748D01*
X101372252Y-62230013D01*
X101372233Y-62230000D01*
X101372252Y-62229987D01*
X101599987Y-62002252D01*
X101778918Y-61734463D01*
X101902168Y-61436912D01*
X101965000Y-61121033D01*
X101965000Y-60798967D01*
X101902168Y-60483088D01*
X101778918Y-60185537D01*
X101599987Y-59917748D01*
X101372252Y-59690013D01*
X101372233Y-59690000D01*
X101372252Y-59689987D01*
X101599987Y-59462252D01*
X101778918Y-59194463D01*
X101902168Y-58896912D01*
X101965000Y-58581033D01*
X101965000Y-58258967D01*
X101902168Y-57943088D01*
X101778918Y-57645537D01*
X101599987Y-57377748D01*
X101372252Y-57150013D01*
X101372233Y-57150000D01*
X101372252Y-57149987D01*
X101599987Y-56922252D01*
X101778918Y-56654463D01*
X101902168Y-56356912D01*
X101965000Y-56041033D01*
X101965000Y-55718967D01*
X101902168Y-55403088D01*
X101778918Y-55105537D01*
X101599987Y-54837748D01*
X101372252Y-54610013D01*
X101372233Y-54610000D01*
X101372252Y-54609987D01*
X101599987Y-54382252D01*
X101778918Y-54114463D01*
X101902168Y-53816912D01*
X101965000Y-53501033D01*
X101965000Y-53178967D01*
X101902168Y-52863088D01*
X101778918Y-52565537D01*
X101599987Y-52297748D01*
X101372252Y-52070013D01*
X101372233Y-52070000D01*
X101372252Y-52069987D01*
X101599987Y-51842252D01*
X101778918Y-51574463D01*
X101902168Y-51276912D01*
X101965000Y-50961033D01*
X101965000Y-50638967D01*
X101902168Y-50323088D01*
X101778918Y-50025537D01*
X101599987Y-49757748D01*
X101475503Y-49633264D01*
X106117080Y-49633264D01*
X106238525Y-49842484D01*
X106555735Y-49898204D01*
X106877720Y-49890969D01*
X107121475Y-49842484D01*
X107242920Y-49633264D01*
X106680000Y-49070344D01*
X106117080Y-49633264D01*
X101475503Y-49633264D01*
X101372252Y-49530013D01*
X101372233Y-49530000D01*
X101372252Y-49529987D01*
X101599987Y-49302252D01*
X101778918Y-49034463D01*
X101902168Y-48736912D01*
X101965000Y-48421033D01*
X101965000Y-48135735D01*
X105041796Y-48135735D01*
X105049031Y-48457720D01*
X105097516Y-48701475D01*
X105306736Y-48822920D01*
X105869656Y-48260000D01*
X107490344Y-48260000D01*
X108053264Y-48822920D01*
X108262484Y-48701475D01*
X108318204Y-48384265D01*
X108310969Y-48062280D01*
X108262484Y-47818525D01*
X108053264Y-47697080D01*
X107490344Y-48260000D01*
X105869656Y-48260000D01*
X105306736Y-47697080D01*
X105097516Y-47818525D01*
X105041796Y-48135735D01*
X101965000Y-48135735D01*
X101965000Y-48098967D01*
X101902168Y-47783088D01*
X101778918Y-47485537D01*
X101599987Y-47217748D01*
X101372252Y-46990013D01*
X101372233Y-46990000D01*
X101372252Y-46989987D01*
X101475503Y-46886736D01*
X106117080Y-46886736D01*
X106680000Y-47449656D01*
X107242920Y-46886736D01*
X107121475Y-46677516D01*
X106804265Y-46621796D01*
X106482280Y-46629031D01*
X106238525Y-46677516D01*
X106117080Y-46886736D01*
X101475503Y-46886736D01*
X101599987Y-46762252D01*
X101778918Y-46494463D01*
X101902168Y-46196912D01*
X101965000Y-45881033D01*
X101965000Y-45558967D01*
X101902168Y-45243088D01*
X101778918Y-44945537D01*
X101599987Y-44677748D01*
X101372252Y-44450013D01*
X101372233Y-44450000D01*
X101372252Y-44449987D01*
X101599987Y-44222252D01*
X101778918Y-43954463D01*
X101902168Y-43656912D01*
X101965000Y-43341033D01*
X101965000Y-43018967D01*
X101902168Y-42703088D01*
X101778918Y-42405537D01*
X101599987Y-42137748D01*
X101372252Y-41910013D01*
X101372233Y-41910000D01*
X101372252Y-41909987D01*
X101599987Y-41682252D01*
X101778918Y-41414463D01*
X101902168Y-41116912D01*
X101965000Y-40801033D01*
X101965000Y-40478967D01*
X101902168Y-40163088D01*
X101778918Y-39865537D01*
X101599987Y-39597748D01*
X101372252Y-39370013D01*
X101372233Y-39370000D01*
X101372252Y-39369987D01*
X101599987Y-39142252D01*
X101778918Y-38874463D01*
X101902168Y-38576912D01*
X101965000Y-38261033D01*
X101965000Y-37938967D01*
X101902168Y-37623088D01*
X101778918Y-37325537D01*
X101599987Y-37057748D01*
X101372252Y-36830013D01*
X101131230Y-36668967D01*
X103775000Y-36668967D01*
X103775000Y-36991033D01*
X103837832Y-37306912D01*
X103961082Y-37604463D01*
X104140013Y-37872252D01*
X104367748Y-38099987D01*
X104635537Y-38278918D01*
X104933088Y-38402168D01*
X105248967Y-38465000D01*
X105439869Y-38465000D01*
X109355001Y-42380133D01*
X109355000Y-57094248D01*
X109355000Y-57949867D01*
X106709869Y-60595000D01*
X106518967Y-60595000D01*
X106203088Y-60657832D01*
X105905537Y-60781082D01*
X105637748Y-60960013D01*
X105410013Y-61187748D01*
X105231082Y-61455537D01*
X105107832Y-61753088D01*
X105045000Y-62068967D01*
X105045000Y-62391033D01*
X105107832Y-62706912D01*
X105231082Y-63004463D01*
X105410013Y-63272252D01*
X105637748Y-63499987D01*
X105905537Y-63678918D01*
X106203088Y-63802168D01*
X106518967Y-63865000D01*
X106841033Y-63865000D01*
X107156912Y-63802168D01*
X107454463Y-63678918D01*
X107722252Y-63499987D01*
X107949987Y-63272252D01*
X108128918Y-63004463D01*
X108252168Y-62706912D01*
X108315000Y-62391033D01*
X108315000Y-62200131D01*
X109355001Y-61160131D01*
X109355000Y-65569868D01*
X108318072Y-66606797D01*
X108318072Y-65040000D01*
X108305812Y-64915518D01*
X108269502Y-64795820D01*
X108210537Y-64685506D01*
X108131185Y-64588815D01*
X108034494Y-64509463D01*
X107924180Y-64450498D01*
X107804482Y-64414188D01*
X107680000Y-64401928D01*
X105680000Y-64401928D01*
X105555518Y-64414188D01*
X105435820Y-64450498D01*
X105325506Y-64509463D01*
X105228815Y-64588815D01*
X105149463Y-64685506D01*
X105090498Y-64795820D01*
X105054188Y-64915518D01*
X105041928Y-65040000D01*
X105041928Y-67040000D01*
X105054188Y-67164482D01*
X105090498Y-67284180D01*
X105149463Y-67394494D01*
X105228815Y-67491185D01*
X105325506Y-67570537D01*
X105371630Y-67595191D01*
X105231082Y-67805537D01*
X105107832Y-68103088D01*
X105045000Y-68418967D01*
X105045000Y-68741033D01*
X105107832Y-69056912D01*
X105231082Y-69354463D01*
X105410013Y-69622252D01*
X105637748Y-69849987D01*
X105905537Y-70028918D01*
X106203088Y-70152168D01*
X106518967Y-70215000D01*
X106585344Y-70215000D01*
X106680000Y-70309656D01*
X106774656Y-70215000D01*
X106841033Y-70215000D01*
X107156912Y-70152168D01*
X107454463Y-70028918D01*
X107722252Y-69849987D01*
X107857239Y-69715000D01*
X107894249Y-69715000D01*
X107950000Y-69720491D01*
X108005751Y-69715000D01*
X108005752Y-69715000D01*
X108172499Y-69698577D01*
X108386447Y-69633676D01*
X108583623Y-69528284D01*
X108756449Y-69386449D01*
X108791996Y-69343135D01*
X111253141Y-66881991D01*
X111296449Y-66846449D01*
X111438284Y-66673623D01*
X111543676Y-66476447D01*
X111608577Y-66262499D01*
X111625000Y-66095752D01*
X111625000Y-66095743D01*
X111630490Y-66040001D01*
X111625000Y-65984259D01*
X111625000Y-58475751D01*
X111630491Y-58420000D01*
X111625000Y-58364248D01*
X111625000Y-41965751D01*
X111630491Y-41910000D01*
X111608577Y-41687501D01*
X111543676Y-41473553D01*
X111438284Y-41276377D01*
X111296449Y-41103551D01*
X111253141Y-41068009D01*
X108015132Y-37830000D01*
X108851928Y-37830000D01*
X108864188Y-37954482D01*
X108900498Y-38074180D01*
X108959463Y-38184494D01*
X109038815Y-38281185D01*
X109135506Y-38360537D01*
X109245820Y-38419502D01*
X109365518Y-38455812D01*
X109490000Y-38468072D01*
X109758250Y-38465000D01*
X109917000Y-38306250D01*
X109917000Y-37403000D01*
X111063000Y-37403000D01*
X111063000Y-38306250D01*
X111221750Y-38465000D01*
X111490000Y-38468072D01*
X111614482Y-38455812D01*
X111734180Y-38419502D01*
X111844494Y-38360537D01*
X111941185Y-38281185D01*
X112020537Y-38184494D01*
X112079502Y-38074180D01*
X112115812Y-37954482D01*
X112128072Y-37830000D01*
X112125000Y-37561750D01*
X111966250Y-37403000D01*
X111063000Y-37403000D01*
X109917000Y-37403000D01*
X109013750Y-37403000D01*
X108855000Y-37561750D01*
X108851928Y-37830000D01*
X108015132Y-37830000D01*
X107045000Y-36859869D01*
X107045000Y-36668967D01*
X113935000Y-36668967D01*
X113935000Y-36991033D01*
X113997832Y-37306912D01*
X114121082Y-37604463D01*
X114300013Y-37872252D01*
X114435001Y-38007240D01*
X114435000Y-53284249D01*
X114429509Y-53340000D01*
X114435000Y-53395751D01*
X114451423Y-53562498D01*
X114516324Y-53776446D01*
X114621716Y-53973623D01*
X114763551Y-54146449D01*
X114806865Y-54181996D01*
X122821928Y-62197061D01*
X122821928Y-63230000D01*
X122834188Y-63354482D01*
X122870498Y-63474180D01*
X122929463Y-63584494D01*
X123008815Y-63681185D01*
X123105506Y-63760537D01*
X123215820Y-63819502D01*
X123335518Y-63855812D01*
X123460000Y-63868072D01*
X125460000Y-63868072D01*
X125584482Y-63855812D01*
X125704180Y-63819502D01*
X125814494Y-63760537D01*
X125911185Y-63681185D01*
X125990537Y-63584494D01*
X126049502Y-63474180D01*
X126085812Y-63354482D01*
X126098072Y-63230000D01*
X126098072Y-61230000D01*
X126085812Y-61105518D01*
X126049502Y-60985820D01*
X125990537Y-60875506D01*
X125911185Y-60778815D01*
X125814494Y-60699463D01*
X125704180Y-60640498D01*
X125584482Y-60604188D01*
X125460000Y-60591928D01*
X124427061Y-60591928D01*
X116705000Y-52869869D01*
X116705000Y-38007239D01*
X116839987Y-37872252D01*
X117018918Y-37604463D01*
X117142168Y-37306912D01*
X117205000Y-36991033D01*
X117205000Y-36668967D01*
X117142168Y-36353088D01*
X117018918Y-36055537D01*
X116868219Y-35830000D01*
X119011928Y-35830000D01*
X119011928Y-37830000D01*
X119024188Y-37954482D01*
X119060498Y-38074180D01*
X119119463Y-38184494D01*
X119198815Y-38281185D01*
X119295506Y-38360537D01*
X119405820Y-38419502D01*
X119515001Y-38452622D01*
X119515000Y-44394248D01*
X119509509Y-44450000D01*
X119515000Y-44505751D01*
X119531423Y-44672498D01*
X119596324Y-44886446D01*
X119701716Y-45083623D01*
X119843551Y-45256449D01*
X119886865Y-45291996D01*
X122825000Y-48230133D01*
X122825000Y-48421033D01*
X122887832Y-48736912D01*
X123011082Y-49034463D01*
X123190013Y-49302252D01*
X123417748Y-49529987D01*
X123685537Y-49708918D01*
X123983088Y-49832168D01*
X124298967Y-49895000D01*
X124621033Y-49895000D01*
X124936912Y-49832168D01*
X125234463Y-49708918D01*
X125502252Y-49529987D01*
X125729987Y-49302252D01*
X125908918Y-49034463D01*
X126032168Y-48736912D01*
X126095000Y-48421033D01*
X126095000Y-48098967D01*
X126032168Y-47783088D01*
X125908918Y-47485537D01*
X125729987Y-47217748D01*
X125502252Y-46990013D01*
X125234463Y-46811082D01*
X124936912Y-46687832D01*
X124621033Y-46625000D01*
X124430133Y-46625000D01*
X121785000Y-43979869D01*
X121785000Y-38452621D01*
X121894180Y-38419502D01*
X122004494Y-38360537D01*
X122101185Y-38281185D01*
X122180537Y-38184494D01*
X122239502Y-38074180D01*
X122275812Y-37954482D01*
X122288072Y-37830000D01*
X122288072Y-35830000D01*
X122275812Y-35705518D01*
X122239502Y-35585820D01*
X122180537Y-35475506D01*
X122101185Y-35378815D01*
X122004494Y-35299463D01*
X121894180Y-35240498D01*
X121774482Y-35204188D01*
X121650000Y-35191928D01*
X119650000Y-35191928D01*
X119525518Y-35204188D01*
X119405820Y-35240498D01*
X119295506Y-35299463D01*
X119198815Y-35378815D01*
X119119463Y-35475506D01*
X119060498Y-35585820D01*
X119024188Y-35705518D01*
X119011928Y-35830000D01*
X116868219Y-35830000D01*
X116839987Y-35787748D01*
X116612252Y-35560013D01*
X116344463Y-35381082D01*
X116046912Y-35257832D01*
X115731033Y-35195000D01*
X115408967Y-35195000D01*
X115093088Y-35257832D01*
X114795537Y-35381082D01*
X114527748Y-35560013D01*
X114300013Y-35787748D01*
X114121082Y-36055537D01*
X113997832Y-36353088D01*
X113935000Y-36668967D01*
X107045000Y-36668967D01*
X106982168Y-36353088D01*
X106858918Y-36055537D01*
X106708219Y-35830000D01*
X108851928Y-35830000D01*
X108855000Y-36098250D01*
X109013750Y-36257000D01*
X109917000Y-36257000D01*
X109917000Y-35353750D01*
X111063000Y-35353750D01*
X111063000Y-36257000D01*
X111966250Y-36257000D01*
X112125000Y-36098250D01*
X112128072Y-35830000D01*
X112115812Y-35705518D01*
X112079502Y-35585820D01*
X112020537Y-35475506D01*
X111941185Y-35378815D01*
X111844494Y-35299463D01*
X111734180Y-35240498D01*
X111614482Y-35204188D01*
X111490000Y-35191928D01*
X111221750Y-35195000D01*
X111063000Y-35353750D01*
X109917000Y-35353750D01*
X109758250Y-35195000D01*
X109490000Y-35191928D01*
X109365518Y-35204188D01*
X109245820Y-35240498D01*
X109135506Y-35299463D01*
X109038815Y-35378815D01*
X108959463Y-35475506D01*
X108900498Y-35585820D01*
X108864188Y-35705518D01*
X108851928Y-35830000D01*
X106708219Y-35830000D01*
X106679987Y-35787748D01*
X106452252Y-35560013D01*
X106184463Y-35381082D01*
X105886912Y-35257832D01*
X105571033Y-35195000D01*
X105248967Y-35195000D01*
X104933088Y-35257832D01*
X104635537Y-35381082D01*
X104367748Y-35560013D01*
X104140013Y-35787748D01*
X103961082Y-36055537D01*
X103837832Y-36353088D01*
X103775000Y-36668967D01*
X101131230Y-36668967D01*
X101104463Y-36651082D01*
X100806912Y-36527832D01*
X100491033Y-36465000D01*
X100168967Y-36465000D01*
X99853088Y-36527832D01*
X99555537Y-36651082D01*
X99287748Y-36830013D01*
X99060013Y-37057748D01*
X98881082Y-37325537D01*
X98757832Y-37623088D01*
X98695000Y-37938967D01*
X92840000Y-37938967D01*
X92840000Y-36988809D01*
X82870000Y-36988809D01*
X76131048Y-36988809D01*
X75972252Y-36830013D01*
X75704463Y-36651082D01*
X75406912Y-36527832D01*
X75091033Y-36465000D01*
X74768967Y-36465000D01*
X74453088Y-36527832D01*
X74155537Y-36651082D01*
X73887748Y-36830013D01*
X73660013Y-37057748D01*
X73481082Y-37325537D01*
X73435993Y-37434392D01*
X73485000Y-37188016D01*
X73485000Y-36471984D01*
X73345309Y-35769710D01*
X73071295Y-35108182D01*
X72673489Y-34512823D01*
X72167177Y-34006511D01*
X71678519Y-33680000D01*
X126441481Y-33680000D01*
X125952823Y-34006511D01*
G37*
X125952823Y-34006511D02*
X125446511Y-34512823D01*
X125048705Y-35108182D01*
X124774691Y-35769710D01*
X124635000Y-36471984D01*
X124635000Y-37188016D01*
X124774691Y-37890290D01*
X125048705Y-38551818D01*
X125446511Y-39147177D01*
X125952823Y-39653489D01*
X126548182Y-40051295D01*
X127209710Y-40325309D01*
X127911984Y-40465000D01*
X128628016Y-40465000D01*
X129330290Y-40325309D01*
X129991818Y-40051295D01*
X130587177Y-39653489D01*
X131093489Y-39147177D01*
X131420001Y-38658517D01*
X131420000Y-93421481D01*
X131093489Y-92932823D01*
X130587177Y-92426511D01*
X129991818Y-92028705D01*
X129330290Y-91754691D01*
X128628016Y-91615000D01*
X127911984Y-91615000D01*
X127209710Y-91754691D01*
X126548182Y-92028705D01*
X125952823Y-92426511D01*
X125446511Y-92932823D01*
X125048705Y-93528182D01*
X124774691Y-94189710D01*
X124635000Y-94891984D01*
X124635000Y-95608016D01*
X124774691Y-96310290D01*
X125048705Y-96971818D01*
X125446511Y-97567177D01*
X125952823Y-98073489D01*
X126441481Y-98400000D01*
X71678519Y-98400000D01*
X72167177Y-98073489D01*
X72673489Y-97567177D01*
X73071295Y-96971818D01*
X73345309Y-96310290D01*
X73485000Y-95608016D01*
X73485000Y-94891984D01*
X73345309Y-94189710D01*
X73071295Y-93528182D01*
X72673489Y-92932823D01*
X72167177Y-92426511D01*
X71571818Y-92028705D01*
X70910290Y-91754691D01*
X70208016Y-91615000D01*
X69491984Y-91615000D01*
X68789710Y-91754691D01*
X68128182Y-92028705D01*
X67532823Y-92426511D01*
X67026511Y-92932823D01*
X66700000Y-93421481D01*
X66700000Y-38658519D01*
X67026511Y-39147177D01*
X67532823Y-39653489D01*
X68128182Y-40051295D01*
X68789710Y-40325309D01*
X69491984Y-40465000D01*
X70208016Y-40465000D01*
X70910290Y-40325309D01*
X71571818Y-40051295D01*
X72167177Y-39653489D01*
X72673489Y-39147177D01*
X73071295Y-38551818D01*
X73295000Y-38011747D01*
X73295000Y-38261033D01*
X73357832Y-38576912D01*
X73481082Y-38874463D01*
X73660013Y-39142252D01*
X73887748Y-39369987D01*
X73887767Y-39370000D01*
X73887748Y-39370013D01*
X73660013Y-39597748D01*
X73481082Y-39865537D01*
X73357832Y-40163088D01*
X73295000Y-40478967D01*
X73295000Y-40801033D01*
X73357832Y-41116912D01*
X73481082Y-41414463D01*
X73660013Y-41682252D01*
X73887748Y-41909987D01*
X73887767Y-41910000D01*
X73887748Y-41910013D01*
X73660013Y-42137748D01*
X73481082Y-42405537D01*
X73357832Y-42703088D01*
X73295000Y-43018967D01*
X73295000Y-43341033D01*
X73357832Y-43656912D01*
X73481082Y-43954463D01*
X73660013Y-44222252D01*
X73887748Y-44449987D01*
X73887767Y-44450000D01*
X73887748Y-44450013D01*
X73660013Y-44677748D01*
X73481082Y-44945537D01*
X73357832Y-45243088D01*
X73295000Y-45558967D01*
X73295000Y-45881033D01*
X73357832Y-46196912D01*
X73481082Y-46494463D01*
X73660013Y-46762252D01*
X73887748Y-46989987D01*
X73887767Y-46990000D01*
X73887748Y-46990013D01*
X73660013Y-47217748D01*
X73481082Y-47485537D01*
X73357832Y-47783088D01*
X73295000Y-48098967D01*
X73295000Y-48421033D01*
X73357832Y-48736912D01*
X73481082Y-49034463D01*
X73660013Y-49302252D01*
X73887748Y-49529987D01*
X73887767Y-49530000D01*
X73887748Y-49530013D01*
X73660013Y-49757748D01*
X73481082Y-50025537D01*
X73357832Y-50323088D01*
X73295000Y-50638967D01*
X73295000Y-50961033D01*
X73357832Y-51276912D01*
X73481082Y-51574463D01*
X73660013Y-51842252D01*
X73887748Y-52069987D01*
X73887767Y-52070000D01*
X73887748Y-52070013D01*
X73660013Y-52297748D01*
X73481082Y-52565537D01*
X73357832Y-52863088D01*
X73295000Y-53178967D01*
X73295000Y-53501033D01*
X73357832Y-53816912D01*
X73481082Y-54114463D01*
X73660013Y-54382252D01*
X73887748Y-54609987D01*
X73887767Y-54610000D01*
X73887748Y-54610013D01*
X73660013Y-54837748D01*
X73481082Y-55105537D01*
X73357832Y-55403088D01*
X73295000Y-55718967D01*
X73295000Y-56041033D01*
X73357832Y-56356912D01*
X73481082Y-56654463D01*
X73660013Y-56922252D01*
X73887748Y-57149987D01*
X73887767Y-57150000D01*
X73887748Y-57150013D01*
X73660013Y-57377748D01*
X73481082Y-57645537D01*
X73357832Y-57943088D01*
X73295000Y-58258967D01*
X73295000Y-58581033D01*
X73357832Y-58896912D01*
X73481082Y-59194463D01*
X73660013Y-59462252D01*
X73887748Y-59689987D01*
X73887767Y-59690000D01*
X73887748Y-59690013D01*
X73660013Y-59917748D01*
X73481082Y-60185537D01*
X73357832Y-60483088D01*
X73295000Y-60798967D01*
X73295000Y-61121033D01*
X73357832Y-61436912D01*
X73481082Y-61734463D01*
X73660013Y-62002252D01*
X73887748Y-62229987D01*
X73887767Y-62230000D01*
X73887748Y-62230013D01*
X73752761Y-62365000D01*
X72445743Y-62365000D01*
X72389999Y-62359510D01*
X72334255Y-62365000D01*
X72334248Y-62365000D01*
X72188493Y-62379356D01*
X72167500Y-62381423D01*
X72135821Y-62391033D01*
X71953553Y-62446324D01*
X71756377Y-62551716D01*
X71583551Y-62693551D01*
X71548008Y-62736860D01*
X70356860Y-63928009D01*
X70313552Y-63963551D01*
X70171717Y-64136377D01*
X70115384Y-64241770D01*
X70066324Y-64333554D01*
X70001423Y-64547502D01*
X69979509Y-64770000D01*
X69985001Y-64825762D01*
X69985000Y-83764248D01*
X69979509Y-83820000D01*
X69985000Y-83875751D01*
X70001423Y-84042498D01*
X70066324Y-84256446D01*
X70171716Y-84453623D01*
X70313551Y-84626449D01*
X70356865Y-84661996D01*
X74088013Y-88393146D01*
X74123551Y-88436449D01*
X74166854Y-88471987D01*
X74166856Y-88471989D01*
X74296377Y-88578284D01*
X74493553Y-88683676D01*
X74707501Y-88748577D01*
X74930000Y-88770491D01*
X74985752Y-88765000D01*
X82079869Y-88765000D01*
X85059427Y-91744560D01*
X85076304Y-91829405D01*
X85176939Y-92072359D01*
X85323038Y-92291013D01*
X85508987Y-92476962D01*
X85727641Y-92623061D01*
X85970595Y-92723696D01*
X86055442Y-92740573D01*
X86788008Y-93473140D01*
X86823551Y-93516449D01*
X86996377Y-93658284D01*
X87193553Y-93763676D01*
X87357705Y-93813471D01*
X87407500Y-93828577D01*
X87428493Y-93830644D01*
X87574248Y-93845000D01*
X87574255Y-93845000D01*
X87629999Y-93850490D01*
X87685743Y-93845000D01*
X89817379Y-93845000D01*
X89850498Y-93954180D01*
X89909463Y-94064494D01*
X89988815Y-94161185D01*
X90085506Y-94240537D01*
X90195820Y-94299502D01*
X90315518Y-94335812D01*
X90440000Y-94348072D01*
X92440000Y-94348072D01*
X92564482Y-94335812D01*
X92684180Y-94299502D01*
X92794494Y-94240537D01*
X92891185Y-94161185D01*
X92970537Y-94064494D01*
X92995191Y-94018370D01*
X93205537Y-94158918D01*
X93389677Y-94235191D01*
X92239869Y-95385000D01*
X85309088Y-95385000D01*
X85350537Y-95334494D01*
X85409502Y-95224180D01*
X85445812Y-95104482D01*
X85458072Y-94980000D01*
X85455000Y-94711750D01*
X85296250Y-94553000D01*
X84393000Y-94553000D01*
X84393000Y-94573000D01*
X83247000Y-94573000D01*
X83247000Y-94553000D01*
X83227000Y-94553000D01*
X83227000Y-93407000D01*
X83247000Y-93407000D01*
X83247000Y-92503750D01*
X84393000Y-92503750D01*
X84393000Y-93407000D01*
X85296250Y-93407000D01*
X85455000Y-93248250D01*
X85458072Y-92980000D01*
X85445812Y-92855518D01*
X85409502Y-92735820D01*
X85350537Y-92625506D01*
X85271185Y-92528815D01*
X85174494Y-92449463D01*
X85064180Y-92390498D01*
X84944482Y-92354188D01*
X84820000Y-92341928D01*
X84551750Y-92345000D01*
X84393000Y-92503750D01*
X83247000Y-92503750D01*
X83088250Y-92345000D01*
X82820000Y-92341928D01*
X82695518Y-92354188D01*
X82575820Y-92390498D01*
X82465506Y-92449463D01*
X82415000Y-92490912D01*
X82415000Y-92144288D01*
X82463061Y-92072359D01*
X82563696Y-91829405D01*
X82615000Y-91571486D01*
X82615000Y-91308514D01*
X82563696Y-91050595D01*
X82463061Y-90807641D01*
X82316962Y-90588987D01*
X82131013Y-90403038D01*
X81912359Y-90256939D01*
X81669405Y-90156304D01*
X81411486Y-90105000D01*
X81148514Y-90105000D01*
X80890595Y-90156304D01*
X80647641Y-90256939D01*
X80428987Y-90403038D01*
X80243038Y-90588987D01*
X80096939Y-90807641D01*
X79996304Y-91050595D01*
X79945000Y-91308514D01*
X79945000Y-91571486D01*
X79996304Y-91829405D01*
X80096939Y-92072359D01*
X80145000Y-92144288D01*
X80145001Y-92802760D01*
X80010013Y-92937748D01*
X79831082Y-93205537D01*
X79707832Y-93503088D01*
X79645000Y-93818967D01*
X79645000Y-93885344D01*
X79550344Y-93980000D01*
X79645000Y-94074656D01*
X79645000Y-94141033D01*
X79707832Y-94456912D01*
X79831082Y-94754463D01*
X80010013Y-95022252D01*
X80237748Y-95249987D01*
X80439809Y-95385000D01*
X79284498Y-95385000D01*
X79302920Y-95353264D01*
X78740000Y-94790344D01*
X78725858Y-94804487D01*
X77915514Y-93994143D01*
X77929656Y-93980000D01*
X77835000Y-93885344D01*
X77835000Y-93818967D01*
X77772168Y-93503088D01*
X77648918Y-93205537D01*
X77469987Y-92937748D01*
X77335000Y-92802761D01*
X77335000Y-92606736D01*
X78177080Y-92606736D01*
X78740000Y-93169656D01*
X79302920Y-92606736D01*
X79181475Y-92397516D01*
X78864265Y-92341796D01*
X78542280Y-92349031D01*
X78298525Y-92397516D01*
X78177080Y-92606736D01*
X77335000Y-92606736D01*
X77335000Y-92144288D01*
X77383061Y-92072359D01*
X77483696Y-91829405D01*
X77535000Y-91571486D01*
X77535000Y-91308514D01*
X77483696Y-91050595D01*
X77383061Y-90807641D01*
X77236962Y-90588987D01*
X77051013Y-90403038D01*
X76832359Y-90256939D01*
X76589405Y-90156304D01*
X76331486Y-90105000D01*
X76068514Y-90105000D01*
X75810595Y-90156304D01*
X75567641Y-90256939D01*
X75348987Y-90403038D01*
X75163038Y-90588987D01*
X75016939Y-90807641D01*
X74916304Y-91050595D01*
X74865000Y-91308514D01*
X74865000Y-91571486D01*
X74916304Y-91829405D01*
X75016939Y-92072359D01*
X75065000Y-92144288D01*
X75065001Y-92802760D01*
X74930013Y-92937748D01*
X74751082Y-93205537D01*
X74627832Y-93503088D01*
X74565000Y-93818967D01*
X74565000Y-94141033D01*
X74627832Y-94456912D01*
X74751082Y-94754463D01*
X74930013Y-95022252D01*
X75065000Y-95157239D01*
X75065000Y-95194249D01*
X75059509Y-95250000D01*
X75065000Y-95305751D01*
X75081423Y-95472498D01*
X75146324Y-95686446D01*
X75251716Y-95883623D01*
X75393551Y-96056449D01*
X75436865Y-96091996D01*
X76628008Y-97283140D01*
X76663551Y-97326449D01*
X76836377Y-97468284D01*
X77033553Y-97573676D01*
X77197705Y-97623471D01*
X77247500Y-97638577D01*
X77268493Y-97640644D01*
X77414248Y-97655000D01*
X77414255Y-97655000D01*
X77469999Y-97660490D01*
X77525743Y-97655000D01*
X92654249Y-97655000D01*
X92710000Y-97660491D01*
X92765751Y-97655000D01*
X92765752Y-97655000D01*
X92932499Y-97638577D01*
X93146447Y-97573676D01*
X93343623Y-97468284D01*
X93516449Y-97326449D01*
X93551996Y-97283135D01*
X96490133Y-94345000D01*
X96681033Y-94345000D01*
X96996912Y-94282168D01*
X97294463Y-94158918D01*
X97562252Y-93979987D01*
X97789987Y-93752252D01*
X97796716Y-93742181D01*
X97821648Y-93777602D01*
X98053721Y-93998679D01*
X98254506Y-94132815D01*
X98487000Y-94070509D01*
X98487000Y-93283000D01*
X99633000Y-93283000D01*
X99633000Y-94070509D01*
X99865494Y-94132815D01*
X100066279Y-93998679D01*
X100298352Y-93777602D01*
X100482836Y-93515498D01*
X100432576Y-93283000D01*
X99633000Y-93283000D01*
X98487000Y-93283000D01*
X98467000Y-93283000D01*
X98467000Y-92137000D01*
X98487000Y-92137000D01*
X98487000Y-91349491D01*
X99633000Y-91349491D01*
X99633000Y-92137000D01*
X100432576Y-92137000D01*
X100482836Y-91904502D01*
X100298352Y-91642398D01*
X100066279Y-91421321D01*
X99865494Y-91287185D01*
X99633000Y-91349491D01*
X98487000Y-91349491D01*
X98254506Y-91287185D01*
X98053721Y-91421321D01*
X97821648Y-91642398D01*
X97796716Y-91677819D01*
X97789987Y-91667748D01*
X97562252Y-91440013D01*
X97294463Y-91261082D01*
X97110323Y-91184809D01*
X97385132Y-90910000D01*
X101154604Y-90910000D01*
X101191684Y-90921248D01*
X101362500Y-90938072D01*
X101837500Y-90938072D01*
X102008316Y-90921248D01*
X102045396Y-90910000D01*
X103209249Y-90910000D01*
X103265000Y-90915491D01*
X103320751Y-90910000D01*
X103320752Y-90910000D01*
X103487499Y-90893577D01*
X103701447Y-90828676D01*
X103898623Y-90723284D01*
X104071449Y-90581449D01*
X104106996Y-90538135D01*
X111730132Y-82915000D01*
X111921033Y-82915000D01*
X112236912Y-82852168D01*
X112534463Y-82728918D01*
X112647687Y-82653264D01*
X116277080Y-82653264D01*
X116398525Y-82862484D01*
X116715735Y-82918204D01*
X117037720Y-82910969D01*
X117281475Y-82862484D01*
X117402920Y-82653264D01*
X116840000Y-82090344D01*
X116277080Y-82653264D01*
X112647687Y-82653264D01*
X112802252Y-82549987D01*
X113029987Y-82322252D01*
X113208918Y-82054463D01*
X113332168Y-81756912D01*
X113395000Y-81441033D01*
X113395000Y-81155735D01*
X115201796Y-81155735D01*
X115209031Y-81477720D01*
X115257516Y-81721475D01*
X115466736Y-81842920D01*
X116029656Y-81280000D01*
X117650344Y-81280000D01*
X118213264Y-81842920D01*
X118422484Y-81721475D01*
X118478204Y-81404265D01*
X118470969Y-81082280D01*
X118422484Y-80838525D01*
X118213264Y-80717080D01*
X117650344Y-81280000D01*
X116029656Y-81280000D01*
X115466736Y-80717080D01*
X115257516Y-80838525D01*
X115201796Y-81155735D01*
X113395000Y-81155735D01*
X113395000Y-81118967D01*
X113332168Y-80803088D01*
X113208918Y-80505537D01*
X113029987Y-80237748D01*
X112802252Y-80010013D01*
X112647688Y-79906736D01*
X116277080Y-79906736D01*
X116840000Y-80469656D01*
X117402920Y-79906736D01*
X117281475Y-79697516D01*
X116964265Y-79641796D01*
X116642280Y-79649031D01*
X116398525Y-79697516D01*
X116277080Y-79906736D01*
X112647688Y-79906736D01*
X112534463Y-79831082D01*
X112236912Y-79707832D01*
X111921033Y-79645000D01*
X111598967Y-79645000D01*
X111283088Y-79707832D01*
X110985537Y-79831082D01*
X110717748Y-80010013D01*
X110490013Y-80237748D01*
X110311082Y-80505537D01*
X110187832Y-80803088D01*
X110125000Y-81118967D01*
X110125000Y-81309868D01*
X102794869Y-88640000D01*
X102704994Y-88640000D01*
X102710000Y-88581750D01*
X102551250Y-88423000D01*
X101948000Y-88423000D01*
X101948000Y-88550000D01*
X101252000Y-88550000D01*
X101252000Y-88423000D01*
X100648750Y-88423000D01*
X100490000Y-88581750D01*
X100495006Y-88640000D01*
X96970752Y-88640000D01*
X96915000Y-88634509D01*
X96859248Y-88640000D01*
X96692501Y-88656423D01*
X96478553Y-88721324D01*
X96281377Y-88826716D01*
X96108551Y-88968551D01*
X96073011Y-89011857D01*
X94009869Y-91075000D01*
X93818967Y-91075000D01*
X93503088Y-91137832D01*
X93205537Y-91261082D01*
X92995191Y-91401630D01*
X92970537Y-91355506D01*
X92891185Y-91258815D01*
X92794494Y-91179463D01*
X92684180Y-91120498D01*
X92564482Y-91084188D01*
X92440000Y-91071928D01*
X90440000Y-91071928D01*
X90315518Y-91084188D01*
X90195820Y-91120498D01*
X90085506Y-91179463D01*
X89988815Y-91258815D01*
X89909463Y-91355506D01*
X89850498Y-91465820D01*
X89817379Y-91575000D01*
X88100132Y-91575000D01*
X87660573Y-91135442D01*
X87643696Y-91050595D01*
X87543061Y-90807641D01*
X87396962Y-90588987D01*
X87211013Y-90403038D01*
X86992359Y-90256939D01*
X86749405Y-90156304D01*
X86664560Y-90139427D01*
X83993382Y-87468250D01*
X100490000Y-87468250D01*
X100648750Y-87627000D01*
X101252000Y-87627000D01*
X101252000Y-87023750D01*
X101948000Y-87023750D01*
X101948000Y-87627000D01*
X102551250Y-87627000D01*
X102710000Y-87468250D01*
X102703046Y-87387330D01*
X102668997Y-87266970D01*
X102612122Y-87155564D01*
X102534605Y-87057395D01*
X102439426Y-86976235D01*
X102330242Y-86915203D01*
X102211249Y-86876645D01*
X102106750Y-86865000D01*
X101948000Y-87023750D01*
X101252000Y-87023750D01*
X101093250Y-86865000D01*
X100988751Y-86876645D01*
X100869758Y-86915203D01*
X100760574Y-86976235D01*
X100665395Y-87057395D01*
X100587878Y-87155564D01*
X100531003Y-87266970D01*
X100496954Y-87387330D01*
X100490000Y-87468250D01*
X83993382Y-87468250D01*
X83391996Y-86866865D01*
X83356449Y-86823551D01*
X83183623Y-86681716D01*
X82986447Y-86576324D01*
X82772499Y-86511423D01*
X82605752Y-86495000D01*
X82605751Y-86495000D01*
X82550000Y-86489509D01*
X82494249Y-86495000D01*
X75400133Y-86495000D01*
X72593646Y-83688514D01*
X74865000Y-83688514D01*
X74865000Y-83951486D01*
X74916304Y-84209405D01*
X75016939Y-84452359D01*
X75163038Y-84671013D01*
X75348987Y-84856962D01*
X75567641Y-85003061D01*
X75810595Y-85103696D01*
X76068514Y-85155000D01*
X76331486Y-85155000D01*
X76589405Y-85103696D01*
X76832359Y-85003061D01*
X76904288Y-84955000D01*
X80575712Y-84955000D01*
X80647641Y-85003061D01*
X80890595Y-85103696D01*
X81148514Y-85155000D01*
X81411486Y-85155000D01*
X81669405Y-85103696D01*
X81912359Y-85003061D01*
X81984288Y-84955000D01*
X85655712Y-84955000D01*
X85727641Y-85003061D01*
X85970595Y-85103696D01*
X86228514Y-85155000D01*
X86491486Y-85155000D01*
X86749405Y-85103696D01*
X86992359Y-85003061D01*
X87064288Y-84955000D01*
X87159869Y-84955000D01*
X88058008Y-85853140D01*
X88093551Y-85896449D01*
X88266377Y-86038284D01*
X88463553Y-86143676D01*
X88627705Y-86193471D01*
X88677500Y-86208577D01*
X88698493Y-86210644D01*
X88844248Y-86225000D01*
X88844255Y-86225000D01*
X88899999Y-86230490D01*
X88955743Y-86225000D01*
X90262761Y-86225000D01*
X90397748Y-86359987D01*
X90665537Y-86538918D01*
X90963088Y-86662168D01*
X91278967Y-86725000D01*
X91601033Y-86725000D01*
X91916912Y-86662168D01*
X92214463Y-86538918D01*
X92482252Y-86359987D01*
X92709987Y-86132252D01*
X92710000Y-86132233D01*
X92710013Y-86132252D01*
X92937748Y-86359987D01*
X93205537Y-86538918D01*
X93503088Y-86662168D01*
X93818967Y-86725000D01*
X94141033Y-86725000D01*
X94456912Y-86662168D01*
X94754463Y-86538918D01*
X95022252Y-86359987D01*
X95249987Y-86132252D01*
X95250000Y-86132233D01*
X95250013Y-86132252D01*
X95477748Y-86359987D01*
X95745537Y-86538918D01*
X96043088Y-86662168D01*
X96358967Y-86725000D01*
X96681033Y-86725000D01*
X96996912Y-86662168D01*
X97294463Y-86538918D01*
X97562252Y-86359987D01*
X97789987Y-86132252D01*
X97790000Y-86132233D01*
X97790013Y-86132252D01*
X98017748Y-86359987D01*
X98285537Y-86538918D01*
X98583088Y-86662168D01*
X98898967Y-86725000D01*
X99221033Y-86725000D01*
X99536912Y-86662168D01*
X99834463Y-86538918D01*
X100102252Y-86359987D01*
X100329987Y-86132252D01*
X100508918Y-85864463D01*
X100632168Y-85566912D01*
X100695000Y-85251033D01*
X100695000Y-84928967D01*
X100632168Y-84613088D01*
X100508918Y-84315537D01*
X100329987Y-84047748D01*
X100102252Y-83820013D01*
X99834463Y-83641082D01*
X99536912Y-83517832D01*
X99221033Y-83455000D01*
X98898967Y-83455000D01*
X98583088Y-83517832D01*
X98285537Y-83641082D01*
X98017748Y-83820013D01*
X97790013Y-84047748D01*
X97790000Y-84047767D01*
X97789987Y-84047748D01*
X97562252Y-83820013D01*
X97294463Y-83641082D01*
X96996912Y-83517832D01*
X96681033Y-83455000D01*
X96358967Y-83455000D01*
X96043088Y-83517832D01*
X95745537Y-83641082D01*
X95477748Y-83820013D01*
X95250013Y-84047748D01*
X95250000Y-84047767D01*
X95249987Y-84047748D01*
X95022252Y-83820013D01*
X94754463Y-83641082D01*
X94456912Y-83517832D01*
X94141033Y-83455000D01*
X93818967Y-83455000D01*
X93503088Y-83517832D01*
X93237139Y-83627992D01*
X101093146Y-75771987D01*
X101136449Y-75736449D01*
X101278284Y-75563623D01*
X101383676Y-75366447D01*
X101406709Y-75290517D01*
X101454482Y-75285812D01*
X101574180Y-75249502D01*
X101684494Y-75190537D01*
X101781185Y-75111185D01*
X101860537Y-75014494D01*
X101919502Y-74904180D01*
X101952621Y-74795000D01*
X105502761Y-74795000D01*
X105545001Y-74837240D01*
X105545000Y-79657379D01*
X105435820Y-79690498D01*
X105325506Y-79749463D01*
X105228815Y-79828815D01*
X105149463Y-79925506D01*
X105090498Y-80035820D01*
X105054188Y-80155518D01*
X105041928Y-80280000D01*
X105041928Y-82280000D01*
X105054188Y-82404482D01*
X105090498Y-82524180D01*
X105149463Y-82634494D01*
X105228815Y-82731185D01*
X105325506Y-82810537D01*
X105435820Y-82869502D01*
X105555518Y-82905812D01*
X105680000Y-82918072D01*
X107680000Y-82918072D01*
X107804482Y-82905812D01*
X107924180Y-82869502D01*
X108034494Y-82810537D01*
X108131185Y-82731185D01*
X108210537Y-82634494D01*
X108269502Y-82524180D01*
X108305812Y-82404482D01*
X108318072Y-82280000D01*
X108318072Y-80280000D01*
X108305812Y-80155518D01*
X108269502Y-80035820D01*
X108210537Y-79925506D01*
X108131185Y-79828815D01*
X108034494Y-79749463D01*
X107924180Y-79690498D01*
X107815000Y-79657379D01*
X107815000Y-74837239D01*
X107949987Y-74702252D01*
X108128918Y-74434463D01*
X108252168Y-74136912D01*
X108315000Y-73821033D01*
X108315000Y-73498967D01*
X108252168Y-73183088D01*
X108128918Y-72885537D01*
X107949987Y-72617748D01*
X107722252Y-72390013D01*
X107454463Y-72211082D01*
X107156912Y-72087832D01*
X106841033Y-72025000D01*
X106774656Y-72025000D01*
X106680000Y-71930344D01*
X106585344Y-72025000D01*
X106518967Y-72025000D01*
X106203088Y-72087832D01*
X105905537Y-72211082D01*
X105637748Y-72390013D01*
X105502761Y-72525000D01*
X101952621Y-72525000D01*
X101919502Y-72415820D01*
X101860537Y-72305506D01*
X101781185Y-72208815D01*
X101684494Y-72129463D01*
X101657516Y-72115043D01*
X101896453Y-71876106D01*
X101703266Y-71682919D01*
X101912484Y-71561475D01*
X101968204Y-71244265D01*
X101962620Y-70995735D01*
X105041796Y-70995735D01*
X105049031Y-71317720D01*
X105097516Y-71561475D01*
X105306736Y-71682920D01*
X105869656Y-71120000D01*
X107490344Y-71120000D01*
X108053264Y-71682920D01*
X108262484Y-71561475D01*
X108318204Y-71244265D01*
X108310969Y-70922280D01*
X108262484Y-70678525D01*
X108053264Y-70557080D01*
X107490344Y-71120000D01*
X105869656Y-71120000D01*
X105306736Y-70557080D01*
X105097516Y-70678525D01*
X105041796Y-70995735D01*
X101962620Y-70995735D01*
X101960969Y-70922280D01*
X101912484Y-70678525D01*
X101703264Y-70557080D01*
X101140344Y-71120000D01*
X101154487Y-71134143D01*
X100344143Y-71944487D01*
X100330000Y-71930344D01*
X100315858Y-71944487D01*
X99505514Y-71134143D01*
X99519656Y-71120000D01*
X98956736Y-70557080D01*
X98747516Y-70678525D01*
X98691796Y-70995735D01*
X98699031Y-71317720D01*
X98747516Y-71561475D01*
X98956734Y-71682919D01*
X98763547Y-71876106D01*
X99002484Y-72115043D01*
X98975506Y-72129463D01*
X98878815Y-72208815D01*
X98799463Y-72305506D01*
X98740498Y-72415820D01*
X98704188Y-72535518D01*
X98691928Y-72660000D01*
X98691928Y-74660000D01*
X98704188Y-74784482D01*
X98740498Y-74904180D01*
X98744047Y-74910820D01*
X90676865Y-82978004D01*
X90633551Y-83013551D01*
X90491716Y-83186377D01*
X90386325Y-83383553D01*
X90386324Y-83383554D01*
X90321423Y-83597502D01*
X90299509Y-83820000D01*
X90305000Y-83875751D01*
X90305000Y-83912761D01*
X90262761Y-83955000D01*
X89370132Y-83955000D01*
X88471996Y-83056865D01*
X88436449Y-83013551D01*
X88263623Y-82871716D01*
X88066447Y-82766324D01*
X87852499Y-82701423D01*
X87685752Y-82685000D01*
X87685751Y-82685000D01*
X87630000Y-82679509D01*
X87574249Y-82685000D01*
X87064288Y-82685000D01*
X86992359Y-82636939D01*
X86749405Y-82536304D01*
X86491486Y-82485000D01*
X86228514Y-82485000D01*
X85970595Y-82536304D01*
X85727641Y-82636939D01*
X85655712Y-82685000D01*
X81984288Y-82685000D01*
X81912359Y-82636939D01*
X81669405Y-82536304D01*
X81411486Y-82485000D01*
X81148514Y-82485000D01*
X80890595Y-82536304D01*
X80647641Y-82636939D01*
X80575712Y-82685000D01*
X76904288Y-82685000D01*
X76832359Y-82636939D01*
X76589405Y-82536304D01*
X76331486Y-82485000D01*
X76068514Y-82485000D01*
X75810595Y-82536304D01*
X75567641Y-82636939D01*
X75348987Y-82783038D01*
X75163038Y-82968987D01*
X75016939Y-83187641D01*
X74916304Y-83430595D01*
X74865000Y-83688514D01*
X72593646Y-83688514D01*
X72255000Y-83349869D01*
X72255000Y-65240131D01*
X72860132Y-64635000D01*
X73752761Y-64635000D01*
X73887748Y-64769987D01*
X73887767Y-64770000D01*
X73887748Y-64770013D01*
X73660013Y-64997748D01*
X73481082Y-65265537D01*
X73357832Y-65563088D01*
X73295000Y-65878967D01*
X73295000Y-66201033D01*
X73357832Y-66516912D01*
X73481082Y-66814463D01*
X73660013Y-67082252D01*
X73887748Y-67309987D01*
X73887767Y-67310000D01*
X73887748Y-67310013D01*
X73660013Y-67537748D01*
X73481082Y-67805537D01*
X73357832Y-68103088D01*
X73295000Y-68418967D01*
X73295000Y-68741033D01*
X73357832Y-69056912D01*
X73481082Y-69354463D01*
X73660013Y-69622252D01*
X73887748Y-69849987D01*
X73887767Y-69850000D01*
X73887748Y-69850013D01*
X73660013Y-70077748D01*
X73481082Y-70345537D01*
X73357832Y-70643088D01*
X73295000Y-70958967D01*
X73295000Y-71281033D01*
X73357832Y-71596912D01*
X73481082Y-71894463D01*
X73660013Y-72162252D01*
X73887748Y-72389987D01*
X73887767Y-72390000D01*
X73887748Y-72390013D01*
X73660013Y-72617748D01*
X73481082Y-72885537D01*
X73357832Y-73183088D01*
X73295000Y-73498967D01*
X73295000Y-73821033D01*
X73357832Y-74136912D01*
X73481082Y-74434463D01*
X73660013Y-74702252D01*
X73887748Y-74929987D01*
X74155537Y-75108918D01*
X74453088Y-75232168D01*
X74768967Y-75295000D01*
X75091033Y-75295000D01*
X75406912Y-75232168D01*
X75704463Y-75108918D01*
X75972252Y-74929987D01*
X76199987Y-74702252D01*
X76378918Y-74434463D01*
X76502168Y-74136912D01*
X76565000Y-73821033D01*
X76565000Y-73498967D01*
X76502168Y-73183088D01*
X76378918Y-72885537D01*
X76199987Y-72617748D01*
X75972252Y-72390013D01*
X75972233Y-72390000D01*
X75972252Y-72389987D01*
X76199987Y-72162252D01*
X76378918Y-71894463D01*
X76502168Y-71596912D01*
X76565000Y-71281033D01*
X76565000Y-70958967D01*
X76502168Y-70643088D01*
X76378918Y-70345537D01*
X76199987Y-70077748D01*
X75972252Y-69850013D01*
X75972233Y-69850000D01*
X75972252Y-69849987D01*
X76199987Y-69622252D01*
X76378918Y-69354463D01*
X76502168Y-69056912D01*
X76565000Y-68741033D01*
X76565000Y-68418967D01*
X76502168Y-68103088D01*
X76378918Y-67805537D01*
X76199987Y-67537748D01*
X75972252Y-67310013D01*
X75972233Y-67310000D01*
X75972252Y-67309987D01*
X76199987Y-67082252D01*
X76378918Y-66814463D01*
X76502168Y-66516912D01*
X76565000Y-66201033D01*
X76565000Y-65878967D01*
X76502168Y-65563088D01*
X76378918Y-65265537D01*
X76199987Y-64997748D01*
X75972252Y-64770013D01*
X75972233Y-64770000D01*
X75972252Y-64769987D01*
X76199987Y-64542252D01*
X76378918Y-64274463D01*
X76502168Y-63976912D01*
X76565000Y-63661033D01*
X76565000Y-63338967D01*
X76502168Y-63023088D01*
X76378918Y-62725537D01*
X76199987Y-62457748D01*
X75972252Y-62230013D01*
X75972233Y-62230000D01*
X75972252Y-62229987D01*
X76199987Y-62002252D01*
X76378918Y-61734463D01*
X76502168Y-61436912D01*
X76565000Y-61121033D01*
X76565000Y-60798967D01*
X76502168Y-60483088D01*
X76378918Y-60185537D01*
X76199987Y-59917748D01*
X75972252Y-59690013D01*
X75972233Y-59690000D01*
X75972252Y-59689987D01*
X76199987Y-59462252D01*
X76378918Y-59194463D01*
X76502168Y-58896912D01*
X76565000Y-58581033D01*
X76565000Y-58258967D01*
X76502168Y-57943088D01*
X76378918Y-57645537D01*
X76199987Y-57377748D01*
X75972252Y-57150013D01*
X75972233Y-57150000D01*
X75972252Y-57149987D01*
X76199987Y-56922252D01*
X76378918Y-56654463D01*
X76502168Y-56356912D01*
X76565000Y-56041033D01*
X76565000Y-55718967D01*
X76502168Y-55403088D01*
X76378918Y-55105537D01*
X76199987Y-54837748D01*
X75972252Y-54610013D01*
X75972233Y-54610000D01*
X75972252Y-54609987D01*
X76199987Y-54382252D01*
X76378918Y-54114463D01*
X76502168Y-53816912D01*
X76565000Y-53501033D01*
X76565000Y-53178967D01*
X76502168Y-52863088D01*
X76378918Y-52565537D01*
X76199987Y-52297748D01*
X75972252Y-52070013D01*
X75972233Y-52070000D01*
X75972252Y-52069987D01*
X76199987Y-51842252D01*
X76378918Y-51574463D01*
X76502168Y-51276912D01*
X76565000Y-50961033D01*
X76565000Y-50638967D01*
X76502168Y-50323088D01*
X76378918Y-50025537D01*
X76199987Y-49757748D01*
X75972252Y-49530013D01*
X75972233Y-49530000D01*
X75972252Y-49529987D01*
X76199987Y-49302252D01*
X76378918Y-49034463D01*
X76502168Y-48736912D01*
X76565000Y-48421033D01*
X76565000Y-48098967D01*
X76502168Y-47783088D01*
X76378918Y-47485537D01*
X76199987Y-47217748D01*
X75972252Y-46990013D01*
X75972233Y-46990000D01*
X75972252Y-46989987D01*
X76199987Y-46762252D01*
X76378918Y-46494463D01*
X76502168Y-46196912D01*
X76565000Y-45881033D01*
X76565000Y-45558967D01*
X76502168Y-45243088D01*
X76378918Y-44945537D01*
X76199987Y-44677748D01*
X75972252Y-44450013D01*
X75972233Y-44450000D01*
X75972252Y-44449987D01*
X76199987Y-44222252D01*
X76378918Y-43954463D01*
X76502168Y-43656912D01*
X76565000Y-43341033D01*
X76565000Y-43018967D01*
X76502168Y-42703088D01*
X76378918Y-42405537D01*
X76199987Y-42137748D01*
X75972252Y-41910013D01*
X75972233Y-41910000D01*
X75972252Y-41909987D01*
X76199987Y-41682252D01*
X76378918Y-41414463D01*
X76502168Y-41116912D01*
X76565000Y-40801033D01*
X76565000Y-40478967D01*
X76502168Y-40163088D01*
X76378918Y-39865537D01*
X76199987Y-39597748D01*
X75972252Y-39370013D01*
X75972233Y-39370000D01*
X75972252Y-39369987D01*
X76199987Y-39142252D01*
X76378918Y-38874463D01*
X76502168Y-38576912D01*
X76565000Y-38261033D01*
X76565000Y-37938967D01*
X76502168Y-37623088D01*
X76378918Y-37325537D01*
X76199987Y-37057748D01*
X76131048Y-36988809D01*
X82870000Y-36988809D01*
X82870000Y-77311190D01*
X92840000Y-77311190D01*
X92840000Y-37938967D01*
X98695000Y-37938967D01*
X98695000Y-38261033D01*
X98757832Y-38576912D01*
X98881082Y-38874463D01*
X99060013Y-39142252D01*
X99287748Y-39369987D01*
X99287767Y-39370000D01*
X99287748Y-39370013D01*
X99060013Y-39597748D01*
X98881082Y-39865537D01*
X98757832Y-40163088D01*
X98695000Y-40478967D01*
X98695000Y-40801033D01*
X98757832Y-41116912D01*
X98881082Y-41414463D01*
X99060013Y-41682252D01*
X99287748Y-41909987D01*
X99287767Y-41910000D01*
X99287748Y-41910013D01*
X99060013Y-42137748D01*
X98881082Y-42405537D01*
X98757832Y-42703088D01*
X98695000Y-43018967D01*
X98695000Y-43341033D01*
X98757832Y-43656912D01*
X98881082Y-43954463D01*
X99060013Y-44222252D01*
X99287748Y-44449987D01*
X99287767Y-44450000D01*
X99287748Y-44450013D01*
X99060013Y-44677748D01*
X98881082Y-44945537D01*
X98757832Y-45243088D01*
X98695000Y-45558967D01*
X98695000Y-45881033D01*
X98757832Y-46196912D01*
X98881082Y-46494463D01*
X99060013Y-46762252D01*
X99287748Y-46989987D01*
X99287767Y-46990000D01*
X99287748Y-46990013D01*
X99060013Y-47217748D01*
X98881082Y-47485537D01*
X98757832Y-47783088D01*
X98695000Y-48098967D01*
X98695000Y-48421033D01*
X98757832Y-48736912D01*
X98881082Y-49034463D01*
X99060013Y-49302252D01*
X99287748Y-49529987D01*
X99287767Y-49530000D01*
X99287748Y-49530013D01*
X99060013Y-49757748D01*
X98881082Y-50025537D01*
X98757832Y-50323088D01*
X98695000Y-50638967D01*
X98695000Y-50961033D01*
X98757832Y-51276912D01*
X98881082Y-51574463D01*
X99060013Y-51842252D01*
X99287748Y-52069987D01*
X99287767Y-52070000D01*
X99287748Y-52070013D01*
X99060013Y-52297748D01*
X98881082Y-52565537D01*
X98757832Y-52863088D01*
X98695000Y-53178967D01*
X98695000Y-53501033D01*
X98757832Y-53816912D01*
X98881082Y-54114463D01*
X99060013Y-54382252D01*
X99287748Y-54609987D01*
X99287767Y-54610000D01*
X99287748Y-54610013D01*
X99060013Y-54837748D01*
X98881082Y-55105537D01*
X98757832Y-55403088D01*
X98695000Y-55718967D01*
X98695000Y-56041033D01*
X98757832Y-56356912D01*
X98881082Y-56654463D01*
X99060013Y-56922252D01*
X99287748Y-57149987D01*
X99287767Y-57150000D01*
X99287748Y-57150013D01*
X99060013Y-57377748D01*
X98881082Y-57645537D01*
X98757832Y-57943088D01*
X98695000Y-58258967D01*
X98695000Y-58581033D01*
X98757832Y-58896912D01*
X98881082Y-59194463D01*
X99060013Y-59462252D01*
X99287748Y-59689987D01*
X99287767Y-59690000D01*
X99287748Y-59690013D01*
X99060013Y-59917748D01*
X98881082Y-60185537D01*
X98757832Y-60483088D01*
X98695000Y-60798967D01*
X98695000Y-61121033D01*
X98757832Y-61436912D01*
X98881082Y-61734463D01*
X99060013Y-62002252D01*
X99287748Y-62229987D01*
X99287767Y-62230000D01*
X99287748Y-62230013D01*
X99060013Y-62457748D01*
X98881082Y-62725537D01*
X98757832Y-63023088D01*
X98695000Y-63338967D01*
X98695000Y-63661033D01*
X98757832Y-63976912D01*
X98881082Y-64274463D01*
X99060013Y-64542252D01*
X99287748Y-64769987D01*
X99287767Y-64770000D01*
X99287748Y-64770013D01*
X99060013Y-64997748D01*
X98881082Y-65265537D01*
X98757832Y-65563088D01*
X98695000Y-65878967D01*
X98695000Y-66201033D01*
X98757832Y-66516912D01*
X98881082Y-66814463D01*
X99060013Y-67082252D01*
X99287748Y-67309987D01*
X99287767Y-67310000D01*
X99287748Y-67310013D01*
X99060013Y-67537748D01*
X98881082Y-67805537D01*
X98757832Y-68103088D01*
X98695000Y-68418967D01*
X98695000Y-68741033D01*
X98757832Y-69056912D01*
X98881082Y-69354463D01*
X99060013Y-69622252D01*
X99287748Y-69849987D01*
X99555537Y-70028918D01*
X99853088Y-70152168D01*
X100168967Y-70215000D01*
X100235344Y-70215000D01*
X100330000Y-70309656D01*
X100424656Y-70215000D01*
X100491033Y-70215000D01*
X100806912Y-70152168D01*
X101104463Y-70028918D01*
X101372252Y-69849987D01*
X101599987Y-69622252D01*
X101778918Y-69354463D01*
X101902168Y-69056912D01*
X101965000Y-68741033D01*
X101965000Y-68418967D01*
X101902168Y-68103088D01*
X101778918Y-67805537D01*
X101599987Y-67537748D01*
X101372252Y-67310013D01*
X101372233Y-67310000D01*
X101372252Y-67309987D01*
X101599987Y-67082252D01*
X101778918Y-66814463D01*
X101902168Y-66516912D01*
X101965000Y-66201033D01*
X101965000Y-65878967D01*
X101902168Y-65563088D01*
X101778918Y-65265537D01*
X101599987Y-64997748D01*
X101372252Y-64770013D01*
X101372233Y-64770000D01*
X101372252Y-64769987D01*
X101599987Y-64542252D01*
X101778918Y-64274463D01*
X101902168Y-63976912D01*
X101965000Y-63661033D01*
X101965000Y-63338967D01*
X101902168Y-63023088D01*
X101778918Y-62725537D01*
X101599987Y-62457748D01*
X101372252Y-62230013D01*
X101372233Y-62230000D01*
X101372252Y-62229987D01*
X101599987Y-62002252D01*
X101778918Y-61734463D01*
X101902168Y-61436912D01*
X101965000Y-61121033D01*
X101965000Y-60798967D01*
X101902168Y-60483088D01*
X101778918Y-60185537D01*
X101599987Y-59917748D01*
X101372252Y-59690013D01*
X101372233Y-59690000D01*
X101372252Y-59689987D01*
X101599987Y-59462252D01*
X101778918Y-59194463D01*
X101902168Y-58896912D01*
X101965000Y-58581033D01*
X101965000Y-58258967D01*
X101902168Y-57943088D01*
X101778918Y-57645537D01*
X101599987Y-57377748D01*
X101372252Y-57150013D01*
X101372233Y-57150000D01*
X101372252Y-57149987D01*
X101599987Y-56922252D01*
X101778918Y-56654463D01*
X101902168Y-56356912D01*
X101965000Y-56041033D01*
X101965000Y-55718967D01*
X101902168Y-55403088D01*
X101778918Y-55105537D01*
X101599987Y-54837748D01*
X101372252Y-54610013D01*
X101372233Y-54610000D01*
X101372252Y-54609987D01*
X101599987Y-54382252D01*
X101778918Y-54114463D01*
X101902168Y-53816912D01*
X101965000Y-53501033D01*
X101965000Y-53178967D01*
X101902168Y-52863088D01*
X101778918Y-52565537D01*
X101599987Y-52297748D01*
X101372252Y-52070013D01*
X101372233Y-52070000D01*
X101372252Y-52069987D01*
X101599987Y-51842252D01*
X101778918Y-51574463D01*
X101902168Y-51276912D01*
X101965000Y-50961033D01*
X101965000Y-50638967D01*
X101902168Y-50323088D01*
X101778918Y-50025537D01*
X101599987Y-49757748D01*
X101475503Y-49633264D01*
X106117080Y-49633264D01*
X106238525Y-49842484D01*
X106555735Y-49898204D01*
X106877720Y-49890969D01*
X107121475Y-49842484D01*
X107242920Y-49633264D01*
X106680000Y-49070344D01*
X106117080Y-49633264D01*
X101475503Y-49633264D01*
X101372252Y-49530013D01*
X101372233Y-49530000D01*
X101372252Y-49529987D01*
X101599987Y-49302252D01*
X101778918Y-49034463D01*
X101902168Y-48736912D01*
X101965000Y-48421033D01*
X101965000Y-48135735D01*
X105041796Y-48135735D01*
X105049031Y-48457720D01*
X105097516Y-48701475D01*
X105306736Y-48822920D01*
X105869656Y-48260000D01*
X107490344Y-48260000D01*
X108053264Y-48822920D01*
X108262484Y-48701475D01*
X108318204Y-48384265D01*
X108310969Y-48062280D01*
X108262484Y-47818525D01*
X108053264Y-47697080D01*
X107490344Y-48260000D01*
X105869656Y-48260000D01*
X105306736Y-47697080D01*
X105097516Y-47818525D01*
X105041796Y-48135735D01*
X101965000Y-48135735D01*
X101965000Y-48098967D01*
X101902168Y-47783088D01*
X101778918Y-47485537D01*
X101599987Y-47217748D01*
X101372252Y-46990013D01*
X101372233Y-46990000D01*
X101372252Y-46989987D01*
X101475503Y-46886736D01*
X106117080Y-46886736D01*
X106680000Y-47449656D01*
X107242920Y-46886736D01*
X107121475Y-46677516D01*
X106804265Y-46621796D01*
X106482280Y-46629031D01*
X106238525Y-46677516D01*
X106117080Y-46886736D01*
X101475503Y-46886736D01*
X101599987Y-46762252D01*
X101778918Y-46494463D01*
X101902168Y-46196912D01*
X101965000Y-45881033D01*
X101965000Y-45558967D01*
X101902168Y-45243088D01*
X101778918Y-44945537D01*
X101599987Y-44677748D01*
X101372252Y-44450013D01*
X101372233Y-44450000D01*
X101372252Y-44449987D01*
X101599987Y-44222252D01*
X101778918Y-43954463D01*
X101902168Y-43656912D01*
X101965000Y-43341033D01*
X101965000Y-43018967D01*
X101902168Y-42703088D01*
X101778918Y-42405537D01*
X101599987Y-42137748D01*
X101372252Y-41910013D01*
X101372233Y-41910000D01*
X101372252Y-41909987D01*
X101599987Y-41682252D01*
X101778918Y-41414463D01*
X101902168Y-41116912D01*
X101965000Y-40801033D01*
X101965000Y-40478967D01*
X101902168Y-40163088D01*
X101778918Y-39865537D01*
X101599987Y-39597748D01*
X101372252Y-39370013D01*
X101372233Y-39370000D01*
X101372252Y-39369987D01*
X101599987Y-39142252D01*
X101778918Y-38874463D01*
X101902168Y-38576912D01*
X101965000Y-38261033D01*
X101965000Y-37938967D01*
X101902168Y-37623088D01*
X101778918Y-37325537D01*
X101599987Y-37057748D01*
X101372252Y-36830013D01*
X101131230Y-36668967D01*
X103775000Y-36668967D01*
X103775000Y-36991033D01*
X103837832Y-37306912D01*
X103961082Y-37604463D01*
X104140013Y-37872252D01*
X104367748Y-38099987D01*
X104635537Y-38278918D01*
X104933088Y-38402168D01*
X105248967Y-38465000D01*
X105439869Y-38465000D01*
X109355001Y-42380133D01*
X109355000Y-57094248D01*
X109355000Y-57949867D01*
X106709869Y-60595000D01*
X106518967Y-60595000D01*
X106203088Y-60657832D01*
X105905537Y-60781082D01*
X105637748Y-60960013D01*
X105410013Y-61187748D01*
X105231082Y-61455537D01*
X105107832Y-61753088D01*
X105045000Y-62068967D01*
X105045000Y-62391033D01*
X105107832Y-62706912D01*
X105231082Y-63004463D01*
X105410013Y-63272252D01*
X105637748Y-63499987D01*
X105905537Y-63678918D01*
X106203088Y-63802168D01*
X106518967Y-63865000D01*
X106841033Y-63865000D01*
X107156912Y-63802168D01*
X107454463Y-63678918D01*
X107722252Y-63499987D01*
X107949987Y-63272252D01*
X108128918Y-63004463D01*
X108252168Y-62706912D01*
X108315000Y-62391033D01*
X108315000Y-62200131D01*
X109355001Y-61160131D01*
X109355000Y-65569868D01*
X108318072Y-66606797D01*
X108318072Y-65040000D01*
X108305812Y-64915518D01*
X108269502Y-64795820D01*
X108210537Y-64685506D01*
X108131185Y-64588815D01*
X108034494Y-64509463D01*
X107924180Y-64450498D01*
X107804482Y-64414188D01*
X107680000Y-64401928D01*
X105680000Y-64401928D01*
X105555518Y-64414188D01*
X105435820Y-64450498D01*
X105325506Y-64509463D01*
X105228815Y-64588815D01*
X105149463Y-64685506D01*
X105090498Y-64795820D01*
X105054188Y-64915518D01*
X105041928Y-65040000D01*
X105041928Y-67040000D01*
X105054188Y-67164482D01*
X105090498Y-67284180D01*
X105149463Y-67394494D01*
X105228815Y-67491185D01*
X105325506Y-67570537D01*
X105371630Y-67595191D01*
X105231082Y-67805537D01*
X105107832Y-68103088D01*
X105045000Y-68418967D01*
X105045000Y-68741033D01*
X105107832Y-69056912D01*
X105231082Y-69354463D01*
X105410013Y-69622252D01*
X105637748Y-69849987D01*
X105905537Y-70028918D01*
X106203088Y-70152168D01*
X106518967Y-70215000D01*
X106585344Y-70215000D01*
X106680000Y-70309656D01*
X106774656Y-70215000D01*
X106841033Y-70215000D01*
X107156912Y-70152168D01*
X107454463Y-70028918D01*
X107722252Y-69849987D01*
X107857239Y-69715000D01*
X107894249Y-69715000D01*
X107950000Y-69720491D01*
X108005751Y-69715000D01*
X108005752Y-69715000D01*
X108172499Y-69698577D01*
X108386447Y-69633676D01*
X108583623Y-69528284D01*
X108756449Y-69386449D01*
X108791996Y-69343135D01*
X111253141Y-66881991D01*
X111296449Y-66846449D01*
X111438284Y-66673623D01*
X111543676Y-66476447D01*
X111608577Y-66262499D01*
X111625000Y-66095752D01*
X111625000Y-66095743D01*
X111630490Y-66040001D01*
X111625000Y-65984259D01*
X111625000Y-58475751D01*
X111630491Y-58420000D01*
X111625000Y-58364248D01*
X111625000Y-41965751D01*
X111630491Y-41910000D01*
X111608577Y-41687501D01*
X111543676Y-41473553D01*
X111438284Y-41276377D01*
X111296449Y-41103551D01*
X111253141Y-41068009D01*
X108015132Y-37830000D01*
X108851928Y-37830000D01*
X108864188Y-37954482D01*
X108900498Y-38074180D01*
X108959463Y-38184494D01*
X109038815Y-38281185D01*
X109135506Y-38360537D01*
X109245820Y-38419502D01*
X109365518Y-38455812D01*
X109490000Y-38468072D01*
X109758250Y-38465000D01*
X109917000Y-38306250D01*
X109917000Y-37403000D01*
X111063000Y-37403000D01*
X111063000Y-38306250D01*
X111221750Y-38465000D01*
X111490000Y-38468072D01*
X111614482Y-38455812D01*
X111734180Y-38419502D01*
X111844494Y-38360537D01*
X111941185Y-38281185D01*
X112020537Y-38184494D01*
X112079502Y-38074180D01*
X112115812Y-37954482D01*
X112128072Y-37830000D01*
X112125000Y-37561750D01*
X111966250Y-37403000D01*
X111063000Y-37403000D01*
X109917000Y-37403000D01*
X109013750Y-37403000D01*
X108855000Y-37561750D01*
X108851928Y-37830000D01*
X108015132Y-37830000D01*
X107045000Y-36859869D01*
X107045000Y-36668967D01*
X113935000Y-36668967D01*
X113935000Y-36991033D01*
X113997832Y-37306912D01*
X114121082Y-37604463D01*
X114300013Y-37872252D01*
X114435001Y-38007240D01*
X114435000Y-53284249D01*
X114429509Y-53340000D01*
X114435000Y-53395751D01*
X114451423Y-53562498D01*
X114516324Y-53776446D01*
X114621716Y-53973623D01*
X114763551Y-54146449D01*
X114806865Y-54181996D01*
X122821928Y-62197061D01*
X122821928Y-63230000D01*
X122834188Y-63354482D01*
X122870498Y-63474180D01*
X122929463Y-63584494D01*
X123008815Y-63681185D01*
X123105506Y-63760537D01*
X123215820Y-63819502D01*
X123335518Y-63855812D01*
X123460000Y-63868072D01*
X125460000Y-63868072D01*
X125584482Y-63855812D01*
X125704180Y-63819502D01*
X125814494Y-63760537D01*
X125911185Y-63681185D01*
X125990537Y-63584494D01*
X126049502Y-63474180D01*
X126085812Y-63354482D01*
X126098072Y-63230000D01*
X126098072Y-61230000D01*
X126085812Y-61105518D01*
X126049502Y-60985820D01*
X125990537Y-60875506D01*
X125911185Y-60778815D01*
X125814494Y-60699463D01*
X125704180Y-60640498D01*
X125584482Y-60604188D01*
X125460000Y-60591928D01*
X124427061Y-60591928D01*
X116705000Y-52869869D01*
X116705000Y-38007239D01*
X116839987Y-37872252D01*
X117018918Y-37604463D01*
X117142168Y-37306912D01*
X117205000Y-36991033D01*
X117205000Y-36668967D01*
X117142168Y-36353088D01*
X117018918Y-36055537D01*
X116868219Y-35830000D01*
X119011928Y-35830000D01*
X119011928Y-37830000D01*
X119024188Y-37954482D01*
X119060498Y-38074180D01*
X119119463Y-38184494D01*
X119198815Y-38281185D01*
X119295506Y-38360537D01*
X119405820Y-38419502D01*
X119515001Y-38452622D01*
X119515000Y-44394248D01*
X119509509Y-44450000D01*
X119515000Y-44505751D01*
X119531423Y-44672498D01*
X119596324Y-44886446D01*
X119701716Y-45083623D01*
X119843551Y-45256449D01*
X119886865Y-45291996D01*
X122825000Y-48230133D01*
X122825000Y-48421033D01*
X122887832Y-48736912D01*
X123011082Y-49034463D01*
X123190013Y-49302252D01*
X123417748Y-49529987D01*
X123685537Y-49708918D01*
X123983088Y-49832168D01*
X124298967Y-49895000D01*
X124621033Y-49895000D01*
X124936912Y-49832168D01*
X125234463Y-49708918D01*
X125502252Y-49529987D01*
X125729987Y-49302252D01*
X125908918Y-49034463D01*
X126032168Y-48736912D01*
X126095000Y-48421033D01*
X126095000Y-48098967D01*
X126032168Y-47783088D01*
X125908918Y-47485537D01*
X125729987Y-47217748D01*
X125502252Y-46990013D01*
X125234463Y-46811082D01*
X124936912Y-46687832D01*
X124621033Y-46625000D01*
X124430133Y-46625000D01*
X121785000Y-43979869D01*
X121785000Y-38452621D01*
X121894180Y-38419502D01*
X122004494Y-38360537D01*
X122101185Y-38281185D01*
X122180537Y-38184494D01*
X122239502Y-38074180D01*
X122275812Y-37954482D01*
X122288072Y-37830000D01*
X122288072Y-35830000D01*
X122275812Y-35705518D01*
X122239502Y-35585820D01*
X122180537Y-35475506D01*
X122101185Y-35378815D01*
X122004494Y-35299463D01*
X121894180Y-35240498D01*
X121774482Y-35204188D01*
X121650000Y-35191928D01*
X119650000Y-35191928D01*
X119525518Y-35204188D01*
X119405820Y-35240498D01*
X119295506Y-35299463D01*
X119198815Y-35378815D01*
X119119463Y-35475506D01*
X119060498Y-35585820D01*
X119024188Y-35705518D01*
X119011928Y-35830000D01*
X116868219Y-35830000D01*
X116839987Y-35787748D01*
X116612252Y-35560013D01*
X116344463Y-35381082D01*
X116046912Y-35257832D01*
X115731033Y-35195000D01*
X115408967Y-35195000D01*
X115093088Y-35257832D01*
X114795537Y-35381082D01*
X114527748Y-35560013D01*
X114300013Y-35787748D01*
X114121082Y-36055537D01*
X113997832Y-36353088D01*
X113935000Y-36668967D01*
X107045000Y-36668967D01*
X106982168Y-36353088D01*
X106858918Y-36055537D01*
X106708219Y-35830000D01*
X108851928Y-35830000D01*
X108855000Y-36098250D01*
X109013750Y-36257000D01*
X109917000Y-36257000D01*
X109917000Y-35353750D01*
X111063000Y-35353750D01*
X111063000Y-36257000D01*
X111966250Y-36257000D01*
X112125000Y-36098250D01*
X112128072Y-35830000D01*
X112115812Y-35705518D01*
X112079502Y-35585820D01*
X112020537Y-35475506D01*
X111941185Y-35378815D01*
X111844494Y-35299463D01*
X111734180Y-35240498D01*
X111614482Y-35204188D01*
X111490000Y-35191928D01*
X111221750Y-35195000D01*
X111063000Y-35353750D01*
X109917000Y-35353750D01*
X109758250Y-35195000D01*
X109490000Y-35191928D01*
X109365518Y-35204188D01*
X109245820Y-35240498D01*
X109135506Y-35299463D01*
X109038815Y-35378815D01*
X108959463Y-35475506D01*
X108900498Y-35585820D01*
X108864188Y-35705518D01*
X108851928Y-35830000D01*
X106708219Y-35830000D01*
X106679987Y-35787748D01*
X106452252Y-35560013D01*
X106184463Y-35381082D01*
X105886912Y-35257832D01*
X105571033Y-35195000D01*
X105248967Y-35195000D01*
X104933088Y-35257832D01*
X104635537Y-35381082D01*
X104367748Y-35560013D01*
X104140013Y-35787748D01*
X103961082Y-36055537D01*
X103837832Y-36353088D01*
X103775000Y-36668967D01*
X101131230Y-36668967D01*
X101104463Y-36651082D01*
X100806912Y-36527832D01*
X100491033Y-36465000D01*
X100168967Y-36465000D01*
X99853088Y-36527832D01*
X99555537Y-36651082D01*
X99287748Y-36830013D01*
X99060013Y-37057748D01*
X98881082Y-37325537D01*
X98757832Y-37623088D01*
X98695000Y-37938967D01*
X92840000Y-37938967D01*
X92840000Y-36988809D01*
X82870000Y-36988809D01*
X76131048Y-36988809D01*
X75972252Y-36830013D01*
X75704463Y-36651082D01*
X75406912Y-36527832D01*
X75091033Y-36465000D01*
X74768967Y-36465000D01*
X74453088Y-36527832D01*
X74155537Y-36651082D01*
X73887748Y-36830013D01*
X73660013Y-37057748D01*
X73481082Y-37325537D01*
X73435993Y-37434392D01*
X73485000Y-37188016D01*
X73485000Y-36471984D01*
X73345309Y-35769710D01*
X73071295Y-35108182D01*
X72673489Y-34512823D01*
X72167177Y-34006511D01*
X71678519Y-33680000D01*
X126441481Y-33680000D01*
X125952823Y-34006511D01*
%TD*%
M02*
